<?xml version="1.0" encoding="UTF-8" standalone="no"?><!DOCTYPE svg PUBLIC "-//W3C//DTD SVG 1.1//EN" "http://www.w3.org/Graphics/SVG/1.1/DTD/svg11.dtd"><svg width="100%" height="100%" viewBox="0 0 464 590" version="1.1" xmlns="http://www.w3.org/2000/svg" xmlns:xlink="http://www.w3.org/1999/xlink" xml:space="preserve" style="fill-rule:evenodd;clip-rule:evenodd;stroke-linecap:round;stroke-linejoin:round;stroke-miterlimit:1.5;"><g><g><path d="M239,233c-44.461,-8.359 -80.192,-29.214 -102,-70c38.159,12.286 69.37,33.764 95,62.626" style="fill:none;stroke:#000;stroke-width:12px;"/><path d="M242.66,187.382c40,-11.89 70.776,-34.056 86.84,-72.61c-46.161,15.279 -71.103,37.482 -81.13,65.334" style="fill:none;stroke:#000;stroke-width:12px;"/><path d="M242,412.823c1.337,-51.452 -1.923,-95.416 -10,-143.823c10.328,-47.384 14.112,-94.72 10,-142l-108,-22l56,-29l52,-8l44,27l-44,32" style="fill:none;stroke:#000;stroke-width:12px;"/><path d="M244.066,68c6.181,-1.523 22.024,-7.79 47.934,-19l-71,-43l-11,29l-44,0l26,41" style="fill:none;stroke:#000;stroke-width:12px;"/></g><g><path d="M73.231,445.969l1.618,1.915l0.004,0.02l-0.644,2.423l-2.423,1.888l-0.009,0.004l-2.251,0.915l-5.692,2.168l-3.639,1.284l-3.903,1.271l-3.967,1.152l-1.946,0.497l-1.887,0.426l-4.02,0.757l-4.532,0.72l-4.857,0.676l-4.99,0.626l-9.625,1.078l-7.695,0.784l-0.191,0.019l-0.01,0.001l-2.021,-0.482l-1.141,-1.519l-0.004,-0.02l0.382,-1.861l1.621,-1.3l0.009,-0.003l0.181,-0.065l7.292,-2.579l9.163,-3.139l4.779,-1.566l4.68,-1.464l4.405,-1.287l3.957,-1.033l1.889,-0.421l1.972,-0.383l4.079,-0.654l4.071,-0.518l3.839,-0.395l6.072,-0.472l2.426,-0.134l0.01,-0.001l2.998,0.672Z"/><path d="M45.115,451.432l-0.001,0.002l0.01,0l2.348,1.228l1.073,2.81l0.232,5.819l0.446,14.608l0.186,9.282l0.099,9.895l-0.035,9.982l-0.082,4.857l-0.133,4.681l-0.428,9.883l-0.612,11.071l-0.747,11.809l-0.833,12.096l-1.24,16.658l-0.118,0.628l-0.217,0.593l-0.308,0.543l-0.378,0.486l-0.01,-0.008l-0.455,0.402l-0.51,0.318l-0.189,0.079l-0.36,0.145l-19.345,6.979l-0.5,0.18l-0.009,0.003l-2.041,-0.058l-1.412,-1.385l-0.008,-0.019l0.038,-1.965l1.407,-1.487l0.009,-0.005l0.37,-0.177l-0.347,-0.815l14.794,-6.106l-0.1,-0.079l2.14,-0.891l-0.173,-0.12l-0.178,-19.946l-0.143,-11.682l-0.076,-11.314l0.015,-10.525l0.128,-9.326l0.13,-4.387l0.191,-4.536l0.525,-9.294l0.653,-9.212l0.707,-8.662l1.267,-13.709l0.56,-5.485l0.001,-0.01l1.239,-2.744l2.41,-1.09l0.01,0Z"/><path d="M98.365,483.029l4.88,0.059l10.024,0.255l9.934,0.386l9.315,0.455l14.656,0.869l5.836,0.401l2.777,1.153l1.16,2.383l0,0.02l-1.16,2.383l-2.777,1.153l-0.01,0.001l-5.826,0.4l-14.656,0.869l-9.315,0.455l-9.934,0.386l-10.024,0.255l-4.88,0.059l-4.704,0.003l-9.937,-0.142l-11.135,-0.29l-11.88,-0.404l-12.171,-0.482l-23.404,-1.056l-18.67,-0.92l-0.464,-0.023l-0.01,-0.001l-1.866,-0.835l-0.781,-1.811l0,-0.02l0.781,-1.811l1.866,-0.835l0.01,-0.001l0.464,-0.023l18.67,-0.92l23.404,-1.056l12.171,-0.482l11.88,-0.404l11.135,-0.29l9.937,-0.142l4.704,0.003Z"/><path d="M76.073,521.062l1.726,1.866l0.005,0.02l-0.508,2.49l-2.332,1.974l-0.01,0.004l-2.587,1.138l-6.546,2.732l-4.186,1.642l-4.492,1.656l-4.568,1.541l-2.242,0.688l-2.175,0.61l-4.635,1.148l-5.229,1.159l-5.604,1.147l-5.76,1.109l-11.11,2.008l-8.884,1.527l-0.221,0.038l-0.01,0.001l-2.038,-0.358l-1.223,-1.477l-0.005,-0.02l0.28,-1.897l1.557,-1.363l0.009,-0.004l0.208,-0.082l8.389,-3.299l10.543,-4.042l5.5,-2.037l5.387,-1.925l5.072,-1.719l4.559,-1.421l2.177,-0.605l2.273,-0.574l4.705,-1.05l4.7,-0.912l4.431,-0.766l7.014,-1.057l2.803,-0.368l0.009,-0.001l3.018,0.479Z"/><path d="M94.283,432.419l2.33,1.236l0.924,2.605l-0.001,0.01l-0.02,0.861l-0.019,0.854l-0.017,0.851l-0.016,0.848l-0.014,0.843l-0.013,0.841l-0.012,0.837l-0.011,0.833l-0.008,0.82l-0.001,0.01l-0.013,0.827l-0.012,0.822l-0.011,0.82l-0.01,0.816l-0.008,0.812l-0.006,0.809l-0.006,0.806l-0.004,0.802l-0.002,0.799l-0.002,0.795l0,0.793l0.002,0.788l0.002,0.786l0.004,0.782l0.005,0.778l0.007,0.776l0.008,0.772l0.009,0.768l0.011,0.766l0.011,0.762l0.013,0.758l0.015,0.756l0.015,0.752l0.017,0.748l0.003,0.125l0.01,0.621l0.013,0.742l0.015,0.739l0.016,0.735l0.017,0.733l0.018,0.729l0.02,0.726l0.021,0.722l0.022,0.72l0.023,0.716l0.025,0.713l0.025,0.71l0.027,0.706l0.028,0.704l0.03,0.7l0.03,0.697l0.029,0.631l0.002,0.063l0.028,0.691l0.028,0.687l0.03,0.685l0.031,0.681l0.033,0.679l0.033,0.675l0.035,0.672l0.035,0.669l0.037,0.666l0.038,0.663l0.039,0.659l0.041,0.657l0.041,0.654l0.043,0.65l0.043,0.648l0.045,0.644l0.046,0.642l0.047,0.638l0.048,0.635l0.01,0.124l0.034,0.509l0.044,0.63l0.044,0.626l0.046,0.624l0.047,0.621l0.048,0.618l0.049,0.614l0.05,0.612l0.052,0.609l0.052,0.606l0.053,0.603l0.055,0.6l0.055,0.598l0.057,0.594l0.057,0.591l0.059,0.589l0.059,0.585l0.061,0.583l0.062,0.58l0.062,0.577l0.064,0.574l0.03,0.266l0.031,0.306l0.06,0.569l0.06,0.566l0.062,0.563l0.063,0.561l0.063,0.557l0.065,0.555l0.065,0.552l0.067,0.55l0.067,0.546l0.069,0.544l0.042,0.326l0.025,0.215l0.066,0.539l0.066,0.536l0.068,0.534l0.068,0.53l0.069,0.528l0.071,0.526l0.071,0.522l0.072,0.52l0.073,0.517l0.074,0.515l0.068,0.461l0.006,0.051l0.07,0.51l0.071,0.507l0.072,0.505l0.072,0.502l0.074,0.5l0.074,0.496l0.075,0.495l0.076,0.491l0.078,0.49l0.077,0.486l0.079,0.484l0.08,0.482l0.08,0.478l0.082,0.477l0.082,0.473l0.083,0.472l0.084,0.468l0.085,0.466l0.085,0.464l0.087,0.461l0.087,0.458l0.088,0.457l0.089,0.453l0.089,0.451l0.091,0.449l0.082,0.405l0.008,0.041l0.088,0.444l0.089,0.442l0.089,0.44l0.09,0.437l0.091,0.435l0.092,0.432l0.092,0.43l0.093,0.428l0.094,0.425l0.095,0.422l0.095,0.421l0.096,0.418l0.097,0.415l0.098,0.413l0.098,0.411l0.099,0.409l0.099,0.406l0.101,0.404l0.101,0.401l0.101,0.399l0.103,0.397l0.103,0.394l0.104,0.393l0.104,0.389l0.105,0.388l0.106,0.385l0.106,0.383l0.107,0.381l0.107,0.378l0.108,0.376l0.109,0.374l0.109,0.372l0.11,0.369l0.048,0.159l0.062,0.209l0.109,0.366l0.109,0.363l0.11,0.361l0.111,0.36l0.111,0.356l0.111,0.355l0.113,0.353l0.113,0.35l0.113,0.348l0.114,0.346l0.114,0.344l0.115,0.342l0.116,0.339l0.116,0.338l0.117,0.335l0.117,0.333l0.117,0.331l0.118,0.329l0.119,0.327l0.119,0.325l0.12,0.323l0.12,0.321l0.12,0.318l0.121,0.317l0.121,0.314l0.122,0.312l0.122,0.311l0.123,0.308l0.123,0.306l0.124,0.305l0.124,0.302l0.124,0.3l0.125,0.298l0.125,0.297l0.126,0.294l0.126,0.292l0.126,0.291l0.127,0.288l0.127,0.286l0.127,0.285l0.128,0.282l0.128,0.281l0.051,0.109l0.077,0.17l0.127,0.277l0.128,0.275l0.129,0.274l0.128,0.271l0.129,0.27l0.129,0.268l0.13,0.266l0.13,0.264l0.13,0.262l0.13,0.261l0.131,0.258l0.131,0.257l0.131,0.255l0.132,0.253l0.132,0.251l0.132,0.249l0.132,0.248l0.132,0.245l0.133,0.244l0.133,0.242l0.134,0.241l0.133,0.238l0.134,0.237l0.134,0.235l0.134,0.234l0.134,0.231l0.135,0.23l0.134,0.228l0.135,0.227l0.135,0.225l0.136,0.223l0.135,0.221l0.136,0.219l0.135,0.218l0.136,0.217l0.136,0.214l0.136,0.213l0.137,0.211l0.136,0.21l0.137,0.208l0.136,0.206l0.137,0.205l0.137,0.203l0.137,0.201l0.137,0.2l0.137,0.198l0.137,0.197l0.138,0.195l0.137,0.193l0.137,0.192l0.138,0.19l0.137,0.189l0.138,0.187l0.138,0.186l0.137,0.184l0.041,0.054l0.097,0.129l0.136,0.182l0.137,0.18l0.137,0.179l0.137,0.177l0.137,0.176l0.137,0.174l0.137,0.173l0.137,0.171l0.138,0.17l0.137,0.168l0.137,0.167l0.136,0.165l0.137,0.164l0.137,0.163l0.137,0.161l0.137,0.16l0.137,0.158l0.136,0.157l0.137,0.156l0.137,0.154l0.136,0.153l0.137,0.151l0.136,0.15l0.136,0.149l0.137,0.147l0.136,0.146l0.136,0.145l0.135,0.143l0.136,0.142l0.136,0.14l0.135,0.14l0.136,0.138l0.135,0.136l0.135,0.136l0.135,0.134l0.135,0.133l0.135,0.131l0.134,0.131l0.135,0.129l0.134,0.127l0.134,0.127l0.134,0.125l0.133,0.124l0.134,0.123l0.133,0.122l0.133,0.12l0.133,0.119l0.133,0.118l0.132,0.117l0.132,0.116l0.132,0.114l0.132,0.113l0.131,0.113l0.132,0.11l0.131,0.11l0.13,0.109l0.131,0.107l0.13,0.107l0.13,0.105l0.13,0.104l0.129,0.103l0.13,0.102l0.128,0.101l0.129,0.099l0.128,0.099l0.125,0.095l0.258,0.194l0.254,0.188l0.253,0.183l0.251,0.179l0.249,0.175l0.249,0.171l0.246,0.167l0.246,0.163l0.244,0.159l0.242,0.155l0.24,0.152l0.239,0.147l0.237,0.144l0.235,0.14l0.234,0.137l0.231,0.133l0.23,0.13l0.228,0.126l0.226,0.123l0.224,0.119l0.221,0.116l0.22,0.112l0.218,0.11l0.215,0.106l0.213,0.103l0.211,0.1l0.208,0.097l0.206,0.094l0.204,0.091l0.201,0.089l0.199,0.085l0.196,0.082l0.194,0.08l0.191,0.077l0.188,0.074l0.186,0.072l0.183,0.069l0.18,0.067l0.177,0.064l0.174,0.062l0.172,0.059l0.168,0.057l0.165,0.054l0.163,0.053l0.159,0.05l0.156,0.048l0.152,0.046l0.15,0.044l0.146,0.042l0.143,0.039l0.139,0.038l0.136,0.036l0.132,0.035l0.094,0.023l10.49,-19.2l0.793,0.433l0.311,-0.522l0.005,-0.009l1.615,-1.244l1.975,0.188l0.018,0.01l1.232,1.561l-0.176,2.029l-0.005,0.009l-0.313,0.623l-10.965,21.771l-0.285,0.468l-0.356,0.42l-0.42,0.361l-0.474,0.292l-0.516,0.215l-0.546,0.132l-0.542,0.043l-0.021,0.002l-0.064,-0.001l-0.093,-0.002l-0.11,-0.003l-0.131,-0.005l-0.151,-0.007l-0.171,-0.01l-0.19,-0.013l-0.21,-0.017l-0.229,-0.02l-0.247,-0.025l-0.265,-0.03l-0.278,-0.034l-0.154,-0.021l-0.152,-0.021l-0.157,-0.023l-0.161,-0.025l-0.166,-0.026l-0.169,-0.028l-0.174,-0.03l-0.177,-0.031l-0.182,-0.034l-0.185,-0.035l-0.19,-0.038l-0.194,-0.039l-0.197,-0.042l-0.201,-0.044l-0.205,-0.046l-0.208,-0.049l-0.213,-0.051l-0.215,-0.053l-0.22,-0.056l-0.223,-0.058l-0.226,-0.061l-0.23,-0.064l-0.233,-0.066l-0.237,-0.069l-0.24,-0.072l-0.243,-0.075l-0.246,-0.078l-0.25,-0.081l-0.252,-0.084l-0.256,-0.087l-0.258,-0.09l-0.262,-0.093l-0.265,-0.097l-0.267,-0.1l-0.27,-0.104l-0.273,-0.106l-0.276,-0.111l-0.278,-0.114l-0.281,-0.118l-0.284,-0.121l-0.286,-0.125l-0.289,-0.129l-0.291,-0.133l-0.293,-0.136l-0.296,-0.141l-0.298,-0.145l-0.301,-0.148l-0.302,-0.153l-0.305,-0.157l-0.307,-0.161l-0.308,-0.166l-0.311,-0.17l-0.313,-0.174l-0.315,-0.179l-0.316,-0.184l-0.318,-0.188l-0.32,-0.192l-0.322,-0.197l-0.323,-0.202l-0.325,-0.207l-0.323,-0.209l-0.167,-0.11l-0.165,-0.109l-0.164,-0.11l-0.165,-0.112l-0.165,-0.112l-0.166,-0.114l-0.166,-0.115l-0.166,-0.117l-0.166,-0.117l-0.167,-0.119l-0.167,-0.12l-0.168,-0.122l-0.167,-0.123l-0.168,-0.124l-0.169,-0.125l-0.168,-0.127l-0.169,-0.128l-0.169,-0.13l-0.17,-0.131l-0.169,-0.132l-0.17,-0.133l-0.17,-0.135l-0.171,-0.136l-0.17,-0.138l-0.171,-0.139l-0.171,-0.14l-0.171,-0.142l-0.172,-0.143l-0.171,-0.145l-0.172,-0.145l-0.172,-0.148l-0.172,-0.149l-0.173,-0.15l-0.172,-0.152l-0.173,-0.153l-0.173,-0.154l-0.173,-0.156l-0.173,-0.158l-0.173,-0.159l-0.173,-0.16l-0.174,-0.162l-0.173,-0.163l-0.174,-0.165l-0.174,-0.166l-0.173,-0.168l-0.174,-0.17l-0.174,-0.171l-0.175,-0.172l-0.174,-0.174l-0.174,-0.175l-0.174,-0.177l-0.175,-0.179l-0.174,-0.18l-0.174,-0.182l-0.175,-0.183l-0.174,-0.185l-0.175,-0.186l-0.174,-0.188l-0.175,-0.19l-0.174,-0.191l-0.175,-0.193l-0.175,-0.194l-0.174,-0.196l-0.175,-0.198l-0.174,-0.199l-0.174,-0.201l-0.124,-0.143l-0.051,-0.059l-0.173,-0.205l-0.174,-0.207l-0.173,-0.208l-0.173,-0.21l-0.173,-0.211l-0.174,-0.213l-0.173,-0.215l-0.173,-0.216l-0.172,-0.218l-0.173,-0.22l-0.173,-0.222l-0.172,-0.223l-0.173,-0.225l-0.172,-0.226l-0.172,-0.229l-0.172,-0.23l-0.172,-0.232l-0.171,-0.233l-0.172,-0.236l-0.171,-0.237l-0.171,-0.238l-0.171,-0.241l-0.171,-0.242l-0.171,-0.245l-0.17,-0.245l-0.17,-0.248l-0.17,-0.25l-0.17,-0.251l-0.17,-0.253l-0.169,-0.255l-0.169,-0.257l-0.169,-0.258l-0.168,-0.261l-0.169,-0.262l-0.168,-0.264l-0.168,-0.266l-0.167,-0.268l-0.168,-0.269l-0.167,-0.272l-0.166,-0.273l-0.167,-0.275l-0.166,-0.277l-0.166,-0.279l-0.166,-0.281l-0.165,-0.283l-0.165,-0.285l-0.164,-0.286l-0.165,-0.289l-0.164,-0.29l-0.163,-0.293l-0.164,-0.294l-0.162,-0.296l-0.163,-0.298l-0.162,-0.301l-0.162,-0.302l-0.098,-0.184l-0.063,-0.12l-0.16,-0.307l-0.159,-0.308l-0.16,-0.311l-0.158,-0.313l-0.158,-0.314l-0.158,-0.317l-0.158,-0.318l-0.157,-0.321l-0.156,-0.323l-0.156,-0.324l-0.156,-0.327l-0.155,-0.329l-0.155,-0.33l-0.155,-0.333l-0.153,-0.335l-0.154,-0.337l-0.153,-0.339l-0.152,-0.341l-0.152,-0.343l-0.152,-0.345l-0.151,-0.347l-0.15,-0.35l-0.15,-0.351l-0.15,-0.354l-0.149,-0.355l-0.148,-0.358l-0.148,-0.36l-0.148,-0.362l-0.146,-0.364l-0.147,-0.366l-0.146,-0.369l-0.145,-0.371l-0.144,-0.372l-0.145,-0.375l-0.143,-0.377l-0.143,-0.38l-0.142,-0.381l-0.142,-0.384l-0.141,-0.386l-0.141,-0.388l-0.14,-0.39l-0.139,-0.393l-0.079,-0.224l-0.059,-0.171l-0.136,-0.397l-0.135,-0.4l-0.135,-0.403l-0.134,-0.404l-0.133,-0.407l-0.133,-0.408l-0.132,-0.412l-0.131,-0.413l-0.131,-0.416l-0.13,-0.418l-0.129,-0.42l-0.129,-0.422l-0.128,-0.425l-0.127,-0.427l-0.126,-0.43l-0.126,-0.432l-0.125,-0.434l-0.124,-0.436l-0.124,-0.439l-0.123,-0.441l-0.122,-0.443l-0.122,-0.446l-0.12,-0.448l-0.12,-0.451l-0.119,-0.452l-0.119,-0.456l-0.117,-0.457l-0.117,-0.46l-0.116,-0.463l-0.116,-0.464l-0.114,-0.468l-0.114,-0.469l-0.113,-0.472l-0.01,-0.043l-0.098,-0.433l-0.107,-0.477l-0.107,-0.481l-0.105,-0.482l-0.105,-0.485l-0.103,-0.488l-0.103,-0.49l-0.102,-0.492l-0.102,-0.495l-0.1,-0.498l-0.099,-0.499l-0.099,-0.503l-0.097,-0.505l-0.097,-0.507l-0.096,-0.51l-0.095,-0.512l-0.094,-0.515l-0.093,-0.517l-0.092,-0.52l-0.091,-0.522l-0.091,-0.525l-0.089,-0.528l-0.089,-0.53l-0.087,-0.532l-0.087,-0.536l-0.085,-0.537l-0.009,-0.053l-0.071,-0.488l-0.077,-0.544l-0.077,-0.547l-0.075,-0.548l-0.075,-0.552l-0.074,-0.554l-0.072,-0.557l-0.072,-0.559l-0.07,-0.562l-0.07,-0.564l-0.068,-0.567l-0.027,-0.226l-0.038,-0.344l-0.061,-0.573l-0.06,-0.576l-0.06,-0.578l-0.058,-0.581l-0.057,-0.583l-0.056,-0.586l-0.054,-0.589l-0.054,-0.591l-0.053,-0.594l-0.051,-0.597l-0.027,-0.32l-0.021,-0.28l-0.043,-0.602l-0.042,-0.605l-0.04,-0.608l-0.04,-0.611l-0.038,-0.613l-0.038,-0.616l-0.036,-0.619l-0.034,-0.621l-0.034,-0.624l-0.032,-0.627l-0.031,-0.63l-0.03,-0.632l-0.029,-0.635l-0.027,-0.638l-0.027,-0.64l-0.025,-0.644l-0.023,-0.646l-0.023,-0.649l-0.021,-0.651l-0.02,-0.655l-0.015,-0.529l-0.002,-0.128l-0.011,-0.66l-0.009,-0.663l-0.008,-0.666l-0.007,-0.669l-0.005,-0.671l-0.004,-0.674l-0.003,-0.677l-0.001,-0.68l0,-0.683l0.002,-0.686l0.002,-0.688l0.004,-0.691l0.006,-0.694l0.007,-0.697l0.008,-0.7l0.01,-0.703l0.011,-0.705l0.013,-0.709l0.013,-0.711l0.002,-0.065l0.019,-0.649l0.022,-0.717l0.023,-0.72l0.026,-0.723l0.026,-0.726l0.028,-0.729l0.03,-0.732l0.031,-0.734l0.032,-0.738l0.034,-0.74l0.035,-0.744l0.037,-0.746l0.039,-0.749l0.04,-0.753l0.041,-0.755l0.043,-0.758l0.037,-0.634l0.009,-0.127l0.052,-0.765l0.054,-0.767l0.055,-0.77l0.057,-0.773l0.058,-0.776l0.06,-0.779l0.062,-0.782l0.063,-0.785l0.065,-0.788l0.066,-0.791l0.068,-0.794l0.07,-0.797l0.071,-0.801l0.073,-0.803l0.074,-0.806l0.077,-0.81l0.078,-0.812l0.079,-0.816l0.081,-0.818l0.083,-0.822l0.085,-0.825l0.086,-0.828l0.088,-0.831l0.089,-0.834l0.001,-0.011l0.096,-0.826l0.099,-0.84l0.101,-0.844l0.102,-0.846l0.105,-0.849l0.105,-0.853l0.108,-0.856l0.11,-0.859l0.111,-0.859l0.001,-0.01l1.308,-2.434l2.491,-0.868l0.019,0.001Z"/><path d="M139.176,506.627l1.881,1.76l0.298,2.761l-0.003,0.01l-0.062,0.26l-0.066,0.266l-0.067,0.266l-0.069,0.266l-0.069,0.266l-0.07,0.266l-0.072,0.265l-0.072,0.265l-0.074,0.265l-0.074,0.265l-0.076,0.264l-0.077,0.264l-0.078,0.264l-0.078,0.264l-0.08,0.264l-0.049,0.159l-0.033,0.103l-0.085,0.262l-0.086,0.261l-0.087,0.261l-0.089,0.261l-0.089,0.261l-0.09,0.26l-0.091,0.26l-0.092,0.26l-0.093,0.259l-0.094,0.259l-0.094,0.259l-0.096,0.259l-0.097,0.258l-0.098,0.258l-0.098,0.258l-0.1,0.257l-0.101,0.257l-0.101,0.257l-0.102,0.257l-0.104,0.256l-0.104,0.256l-0.105,0.256l-0.106,0.255l-0.107,0.255l-0.108,0.255l-0.108,0.254l-0.11,0.254l-0.11,0.254l-0.112,0.253l-0.112,0.254l-0.113,0.252l-0.114,0.253l-0.114,0.252l-0.116,0.252l-0.116,0.252l-0.118,0.251l-0.118,0.251l-0.119,0.25l-0.081,0.172l-0.039,0.078l-0.124,0.248l-0.125,0.247l-0.125,0.248l-0.127,0.247l-0.127,0.246l-0.128,0.246l-0.128,0.246l-0.13,0.246l-0.13,0.245l-0.131,0.244l-0.131,0.245l-0.133,0.244l-0.133,0.243l-0.134,0.244l-0.135,0.243l-0.135,0.242l-0.136,0.242l-0.137,0.242l-0.137,0.242l-0.139,0.241l-0.141,0.243l-0.277,0.478l-0.192,0.323l-0.093,0.154l-0.292,0.473l-0.294,0.471l-0.297,0.47l-0.299,0.468l-0.302,0.467l-0.304,0.465l-0.307,0.463l-0.309,0.462l-0.312,0.46l-0.314,0.459l-0.316,0.457l-0.318,0.455l-0.249,0.351l-0.074,0.101l-0.331,0.446l-0.332,0.443l-0.335,0.443l-0.337,0.44l-0.339,0.439l-0.34,0.436l-0.343,0.436l-0.344,0.433l-0.347,0.432l-0.347,0.429l-0.35,0.428l-0.351,0.427l-0.345,0.415l-0.009,0.009l-0.362,0.416l-0.363,0.414l-0.365,0.413l-0.367,0.41l-0.368,0.409l-0.369,0.406l-0.156,0.171l-0.219,0.231l-0.378,0.397l-0.379,0.395l-0.381,0.393l-0.381,0.392l-0.383,0.389l-0.25,0.252l-0.137,0.133l-0.393,0.377l-0.393,0.376l-0.395,0.374l-0.395,0.372l-0.396,0.369l-0.397,0.368l-0.398,0.366l-0.399,0.364l-0.399,0.362l-0.399,0.36l-0.401,0.358l-0.401,0.356l-0.372,0.329l-0.029,0.025l-0.408,0.346l-0.408,0.344l-0.409,0.341l-0.409,0.34l-0.409,0.338l-0.41,0.335l-0.409,0.334l-0.41,0.332l-0.41,0.33l-0.41,0.328l-0.411,0.325l-0.41,0.324l-0.41,0.322l-0.41,0.32l-0.411,0.318l-0.043,0.034l-0.37,0.278l-0.414,0.309l-0.413,0.308l-0.413,0.305l-0.413,0.304l-0.413,0.301l-0.412,0.3l-0.412,0.297l-0.411,0.296l-0.412,0.293l-0.41,0.292l-0.41,0.289l-0.41,0.288l-0.409,0.285l-0.408,0.284l-0.408,0.281l-0.359,0.247l-0.048,0.032l-0.409,0.275l-0.407,0.272l-0.407,0.27l-0.407,0.269l-0.405,0.266l-0.404,0.265l-0.404,0.262l-0.402,0.261l-0.401,0.258l-0.401,0.256l-0.399,0.255l-0.398,0.252l-0.397,0.251l-0.396,0.248l-0.394,0.247l-0.394,0.244l-0.391,0.242l-0.391,0.241l-0.032,0.019l-0.359,0.216l-0.39,0.234l-0.388,0.231l-0.387,0.23l-0.385,0.227l-0.384,0.226l-0.382,0.223l-0.381,0.222l-0.378,0.219l-0.378,0.217l-0.375,0.216l-0.373,0.213l-0.372,0.212l-0.37,0.209l-0.368,0.208l-0.366,0.205l-0.364,0.203l-0.364,0.203l-0.716,0.395l-0.71,0.389l-0.701,0.381l-0.692,0.372l-0.683,0.365l-0.673,0.356l-0.663,0.348l-0.654,0.341l-0.643,0.332l-0.632,0.324l-0.621,0.315l-0.361,0.182l-0.25,0.125l-0.601,0.296l-0.588,0.288l-0.577,0.28l-0.564,0.272l-0.551,0.264l-0.539,0.255l-0.525,0.248l-0.512,0.239l-0.497,0.231l-0.484,0.223l-0.469,0.215l-0.454,0.206l-0.44,0.199l-0.424,0.19l-0.408,0.182l-0.393,0.174l-0.377,0.165l-0.36,0.157l-0.343,0.149l-0.327,0.141l-0.309,0.132l-0.293,0.125l-0.528,0.222l-0.456,0.19l-0.379,0.156l-0.302,0.123l-0.086,0.035l-0.135,0.054l-0.178,0.071l-0.009,0.003l-2.053,0.033l-1.476,-1.278l-0.009,-0.018l-0.066,-1.946l1.312,-1.583l0.009,-0.005l0.154,-0.088l0.113,-0.066l0.073,-0.042l0.261,-0.153l0.334,-0.196l0.403,-0.24l0.473,-0.284l0.258,-0.156l0.276,-0.168l0.292,-0.178l0.307,-0.189l0.322,-0.199l0.337,-0.21l0.352,-0.219l0.366,-0.23l0.379,-0.24l0.394,-0.25l0.407,-0.26l0.419,-0.27l0.433,-0.279l0.445,-0.29l0.458,-0.299l0.469,-0.309l0.481,-0.319l0.492,-0.328l0.503,-0.337l0.514,-0.347l0.525,-0.357l0.534,-0.365l0.223,-0.154l0.323,-0.219l0.556,-0.381l0.565,-0.39l0.575,-0.398l0.583,-0.408l0.592,-0.416l0.599,-0.426l0.608,-0.434l0.615,-0.442l0.622,-0.452l0.63,-0.459l0.638,-0.47l0.318,-0.236l0.322,-0.239l0.324,-0.242l0.325,-0.244l0.326,-0.245l0.328,-0.248l0.329,-0.25l0.331,-0.252l0.332,-0.253l0.333,-0.256l0.334,-0.258l0.336,-0.26l0.336,-0.262l0.338,-0.264l0.339,-0.266l0.34,-0.268l0.341,-0.27l0.314,-0.249l0.028,-0.022l0.345,-0.271l0.346,-0.273l0.346,-0.274l0.348,-0.277l0.348,-0.279l0.349,-0.28l0.35,-0.282l0.35,-0.285l0.351,-0.286l0.352,-0.288l0.352,-0.29l0.353,-0.291l0.353,-0.294l0.354,-0.295l0.354,-0.297l0.355,-0.299l0.355,-0.301l0.355,-0.303l0.042,-0.036l0.316,-0.265l0.358,-0.304l0.358,-0.304l0.359,-0.307l0.359,-0.308l0.358,-0.311l0.359,-0.312l0.359,-0.313l0.359,-0.315l0.359,-0.318l0.359,-0.318l0.359,-0.321l0.359,-0.322l0.358,-0.324l0.358,-0.325l0.358,-0.327l0.32,-0.294l0.038,-0.035l0.361,-0.326l0.361,-0.327l0.36,-0.33l0.36,-0.331l0.36,-0.332l0.359,-0.334l0.358,-0.336l0.358,-0.337l0.358,-0.339l0.356,-0.341l0.356,-0.342l0.356,-0.343l0.354,-0.345l0.354,-0.347l0.353,-0.348l0.025,-0.025l0.333,-0.319l0.357,-0.344l0.357,-0.347l0.355,-0.347l0.355,-0.35l0.353,-0.351l0.353,-0.352l0.351,-0.354l0.351,-0.355l0.349,-0.356l0.348,-0.359l0.347,-0.359l0.346,-0.361l0.12,-0.126l0.229,-0.231l0.352,-0.356l0.349,-0.358l0.349,-0.359l0.347,-0.36l0.346,-0.362l0.2,-0.211l0.147,-0.15l0.349,-0.358l0.348,-0.361l0.347,-0.361l0.344,-0.363l0.344,-0.365l0.342,-0.366l0.007,-0.008l0.34,-0.353l0.346,-0.362l0.345,-0.364l0.343,-0.365l0.341,-0.366l0.339,-0.368l0.338,-0.37l0.336,-0.371l0.334,-0.372l0.332,-0.374l0.33,-0.375l0.328,-0.377l0.327,-0.378l0.073,-0.086l0.257,-0.289l0.331,-0.375l0.328,-0.376l0.327,-0.378l0.324,-0.379l0.322,-0.381l0.32,-0.382l0.318,-0.384l0.316,-0.385l0.313,-0.386l0.311,-0.389l0.309,-0.389l0.306,-0.391l0.099,-0.127l0.21,-0.263l0.31,-0.393l0.151,-0.192l0.152,-0.196l0.152,-0.196l0.152,-0.196l0.15,-0.197l0.15,-0.198l0.15,-0.198l0.149,-0.198l0.148,-0.198l0.147,-0.199l0.147,-0.199l0.146,-0.2l0.146,-0.2l0.145,-0.2l0.144,-0.201l0.144,-0.201l0.143,-0.202l0.142,-0.202l0.142,-0.202l0.141,-0.202l0.14,-0.204l0.044,-0.064l0.098,-0.138l0.142,-0.201l0.142,-0.203l0.141,-0.202l0.14,-0.203l0.14,-0.204l0.139,-0.204l0.138,-0.204l0.137,-0.205l0.137,-0.205l0.136,-0.205l0.135,-0.206l0.135,-0.206l0.134,-0.207l0.133,-0.207l0.133,-0.208l0.131,-0.208l0.131,-0.208l0.13,-0.209l0.13,-0.209l0.129,-0.209l0.128,-0.21l0.127,-0.211l0.126,-0.21l0.126,-0.211l0.125,-0.212l0.124,-0.212l0.123,-0.212l0.123,-0.213l0.121,-0.213l0.121,-0.214l0.12,-0.214l0.12,-0.215l0.118,-0.215l0.118,-0.215l0.117,-0.216l0.116,-0.216l0.115,-0.216l0.115,-0.217l0.045,-0.086l0.071,-0.131l0.116,-0.216l0.115,-0.217l0.114,-0.217l0.114,-0.218l0.112,-0.219l0.112,-0.218l0.111,-0.219l0.11,-0.22l0.11,-0.22l0.108,-0.221l0.108,-0.221l0.106,-0.221l0.106,-0.222l0.105,-0.222l0.107,-0.23l0.004,-0.009l1.946,-1.987l2.559,-0.226l0.019,0.007Z"/><path d="M124.836,444.336l0.082,0.061l0.144,0.108l0.264,0.2l0.355,0.27l0.442,0.336l0.522,0.399l0.594,0.457l0.603,0.466l0.057,0.046l0.705,0.571l0.374,0.305l0.385,0.315l0.396,0.326l0.408,0.335l0.417,0.345l0.426,0.354l0.385,0.321l0.048,0.043l0.43,0.38l0.435,0.388l0.442,0.395l0.426,0.384l0.019,0.018l0.437,0.417l0.44,0.423l0.443,0.428l0.338,0.33l0.101,0.106l0.425,0.452l0.426,0.454l0.425,0.457l0.115,0.125l0.286,0.35l0.392,0.483l0.388,0.484l0.16,0.201l0.203,0.298l0.317,0.47l0.025,0.042l0.307,0.525l0.155,0.266l0.002,0.003l0.133,0.271l0.134,0.274l0.132,0.272l0.131,0.271l0.129,0.27l0.128,0.269l0.092,0.194l0.03,0.077l0.109,0.277l0.106,0.276l0.105,0.273l0.104,0.272l0.102,0.271l0.1,0.268l0.078,0.213l0.017,0.055l0.085,0.271l0.083,0.27l0.081,0.267l0.079,0.264l0.077,0.263l0.075,0.26l0.074,0.257l0.004,0.018l0.056,0.243l0.059,0.259l0.056,0.255l0.054,0.254l0.052,0.25l0.05,0.248l0.047,0.246l0.046,0.243l0.044,0.241l0.041,0.238l0.039,0.237l0.036,0.235l0.035,0.233l0.031,0.232l0.005,0.036l0.018,0.198l0.016,0.224l0.012,0.125l0.008,0.117l0.007,0.117l0.006,0.117l0.006,0.117l0.005,0.118l0.004,0.118l0.003,0.119l0.002,0.12l0.001,0.121l-0.001,0.122l-0.007,0.093l0,0.01l-0.969,2.704l-1.938,1.383l-0.01,0.002l0,0l-0.01,0.001l-2.103,-0.714l-1.963,-2.221l-0.005,-0.009l-0.032,-0.055l0.011,0.059l-0.028,-0.028l-0.029,-0.029l0.011,0.054l-0.031,-0.032l-0.032,-0.033l0.012,0.049l-0.034,-0.036l-0.035,-0.036l0.012,0.044l-0.037,-0.039l-0.032,-0.019l-0.034,-0.022l-0.036,-0.024l-0.034,-0.018l-0.082,-0.068l-0.072,-0.056l-0.013,-0.01l-0.084,-0.077l-0.09,-0.083l-0.096,-0.089l-0.102,-0.096l-0.108,-0.1l-0.114,-0.106l-0.119,-0.11l-0.124,-0.115l-0.13,-0.119l-0.136,-0.123l-0.14,-0.127l-0.145,-0.13l-0.15,-0.134l-0.144,-0.127l-0.01,-0.01l-0.147,-0.146l-0.153,-0.149l-0.156,-0.152l-0.161,-0.154l-0.164,-0.158l-0.168,-0.159l-0.172,-0.163l-0.035,-0.033l-0.131,-0.137l-0.167,-0.173l-0.171,-0.176l-0.173,-0.178l-0.177,-0.18l-0.179,-0.182l-0.183,-0.184l-0.051,-0.051l-0.122,-0.142l-0.171,-0.197l-0.173,-0.2l-0.176,-0.2l-0.177,-0.203l-0.18,-0.203l-0.18,-0.203l-0.002,-0.002l-0.165,-0.214l-0.341,-0.441l-0.027,-0.035l-0.291,-0.426l-0.187,-0.272l-0.117,-0.204l-0.288,-0.495l-0.291,-0.497l-0.214,-0.363l-0.072,-0.142l-0.267,-0.521l-0.269,-0.52l-0.271,-0.52l-0.064,-0.123l-0.192,-0.405l-0.252,-0.529l-0.253,-0.526l-0.252,-0.521l-0.011,-0.022l-0.227,-0.503l-0.236,-0.519l-0.234,-0.511l-0.232,-0.504l-0.026,-0.057l-0.192,-0.445l-0.213,-0.494l-0.209,-0.482l-0.206,-0.471l-0.2,-0.457l-0.196,-0.444l-0.189,-0.428l-0.362,-0.812l-0.03,-0.065l-0.291,-0.686l-0.288,-0.674l-0.254,-0.59l-0.215,-0.497l-0.174,-0.399l-0.127,-0.292l-0.072,-0.162l-0.035,-0.082l-0.004,-0.009l-0.327,-2.129l0.741,-1.59l0.016,-0.012l1.72,-0.375l1.997,0.793Z"/></g><g><path d="M417.156,514.47l0.763,0.031l0.882,0.181l0.847,0.322l0.79,0.457l0.712,0.582l2.188,2.152l5.68,5.752l2.638,2.771l2.696,2.913l5.442,6.077l5.296,6.114l4.899,5.798l7.597,9.227l2.987,3.713l1.064,2.824l-0.906,2.466l-0.007,0.007l0.007,0.008l-0.007,0.006l-2.49,0.768l-2.793,-1.185l-0.008,-0.006l-3.045,-2.614l-7.402,-6.503l-4.542,-4.105l-4.724,-4.395l-4.66,-4.518l-2.237,-2.26l-2.14,-2.241l-4.505,-4.93l-5.079,-5.469l0.002,-0.277l-0.138,-0.156l0,-0.003l-5.245,5.329l-0.042,-0.452l-5.681,5.157l-11.351,10.169l-9.497,8.456l-0.241,0.215l-0.008,0.007l-1.916,0.74l-1.826,-0.686l-0.007,-0.006l-0.007,-0.007l-0.748,-1.814l0.694,-1.929l0.006,-0.007l0.252,-0.292l10.14,-11.759l12.781,-14.672l6.694,-7.583l2.255,-2.519l0.607,-0.6l0.702,-0.5l0.781,-0.384l0.841,-0.256l0.879,-0.118l0.13,0.004Z"/><path d="M441.319,498.519l0.01,0l2.993,0.832l1.55,1.881l0.003,0.02l-0.726,2.327l-2.459,1.898l-0.009,0.004l-1.746,0.749l-4.42,1.75l-2.827,1.017l-3.035,0.988l-3.087,0.863l-1.516,0.357l-1.472,0.291l-3.136,0.469l-3.541,0.397l-3.795,0.331l-3.901,0.272l-7.526,0.396l-6.019,0.241l-0.15,0.005l-0.01,0.001l-2.014,-0.576l-1.091,-1.512l-0.004,-0.02l0.441,-1.812l1.649,-1.292l0.009,-0.003l0.141,-0.051l5.665,-2.046l7.121,-2.47l3.716,-1.218l3.64,-1.123l3.429,-0.967l3.082,-0.748l1.473,-0.285l1.538,-0.241l3.186,-0.363l3.183,-0.23l3.002,-0.123l4.753,-0.045l1.9,0.036Z"/><path d="M410.399,472.742l0.5,0.285l7.712,4.396l0.45,0.284l0.399,0.363l0.335,0.433l0.258,0.491l0.172,0.536l0.076,0.565l0.107,6.615l0.315,25.678l0.097,13.352l0.029,13.03l-0.062,12.211l-0.172,10.894l-0.152,5.154l-0.213,5.347l-0.572,10.977l-0.017,-0.001l-0.035,0.81l-0.131,0.963l-0.295,0.923l-0.447,0.856l-0.586,0.762l-0.707,0.648l-0.804,0.515l-0.879,0.367l-0.925,0.209l-0.943,0.046l-0.935,-0.116l-0.897,-0.275l-0.833,-0.424l-0.745,-0.559l-0.635,-0.677l-0.507,-0.773l-0.365,-0.846l-0.212,-0.893l-0.039,-0.282l-0.035,-0.272l-0.01,-0.07l-0.024,-0.2l-0.031,-0.245l-0.278,0.018l-0.004,-0.471l0.006,-1.482l-0.03,-0.188l-0.042,-0.255l-0.042,-0.254l-0.044,-0.253l-0.044,-0.251l-0.045,-0.249l-0.046,-0.248l-0.046,-0.247l-0.048,-0.245l-0.048,-0.243l-0.049,-0.242l-0.05,-0.24l-0.051,-0.239l-0.052,-0.237l-0.052,-0.236l-0.054,-0.234l-0.054,-0.232l-0.055,-0.231l-0.056,-0.23l-0.056,-0.228l-0.058,-0.226l-0.058,-0.225l-0.059,-0.223l-0.06,-0.221l-0.032,-0.118l-0.027,-0.103l-0.059,-0.219l-0.06,-0.218l-0.061,-0.216l-0.061,-0.215l-0.062,-0.213l-0.063,-0.211l-0.064,-0.21l-0.065,-0.209l-0.066,-0.207l-0.066,-0.205l-0.067,-0.203l-0.068,-0.203l-0.069,-0.2l-0.069,-0.199l-0.071,-0.197l-0.071,-0.196l-0.072,-0.195l-0.073,-0.192l-0.073,-0.191l-0.075,-0.19l-0.075,-0.188l-0.076,-0.186l-0.077,-0.185l-0.077,-0.183l-0.079,-0.182l-0.079,-0.18l-0.08,-0.179l-0.08,-0.176l-0.082,-0.176l-0.082,-0.174l-0.083,-0.172l-0.084,-0.171l-0.084,-0.169l-0.086,-0.167l-0.086,-0.166l-0.087,-0.165l-0.087,-0.163l-0.089,-0.161l-0.089,-0.16l-0.09,-0.159l-0.091,-0.156l-0.091,-0.156l-0.092,-0.153l-0.093,-0.153l-0.094,-0.15l-0.095,-0.149l-0.095,-0.148l-0.096,-0.146l-0.097,-0.145l-0.097,-0.143l-0.099,-0.142l-0.099,-0.14l-0.1,-0.139l-0.101,-0.137l-0.101,-0.136l-0.103,-0.135l-0.103,-0.132l-0.104,-0.132l-0.104,-0.13l-0.106,-0.129l-0.106,-0.127l-0.107,-0.126l-0.108,-0.124l-0.036,-0.041l-0.072,-0.083l-0.108,-0.123l-0.109,-0.122l-0.11,-0.12l-0.111,-0.119l-0.112,-0.118l-0.113,-0.116l-0.113,-0.115l-0.115,-0.113l-0.115,-0.113l-0.116,-0.11l-0.117,-0.11l-0.119,-0.108l-0.119,-0.108l-0.12,-0.105l-0.121,-0.105l-0.122,-0.103l-0.123,-0.102l-0.125,-0.1l-0.125,-0.1l-0.126,-0.098l-0.127,-0.097l-0.129,-0.095l-0.129,-0.095l-0.13,-0.093l-0.132,-0.092l-0.133,-0.09l-0.134,-0.089l-0.151,-0.097l-0.008,-0.005l-1.663,-2.201l0.201,-2.593l0.005,-0.008l0.004,-0.009l2.055,-1.623l2.745,0.181l0.206,0.094l0.211,0.1l0.211,0.102l0.21,0.105l0.208,0.107l0.208,0.109l0.206,0.111l0.206,0.114l0.204,0.115l0.203,0.118l0.202,0.12l0.201,0.121l0.2,0.124l0.199,0.127l0.197,0.128l0.196,0.13l0.196,0.132l0.194,0.135l0.193,0.136l0.191,0.139l0.191,0.14l0.189,0.143l0.188,0.144l0.187,0.147l0.186,0.148l0.184,0.151l0.183,0.152l0.182,0.154l0.122,0.105l0.059,0.052l0.178,0.16l0.177,0.161l0.175,0.163l0.175,0.165l0.173,0.167l0.172,0.169l0.17,0.171l0.126,0.128l0.335,-7.828l0.622,-11.494l0.76,-12.331l0.849,-12.715l1.769,-24.707l0.585,-9.984l0.171,-0.091l-6.162,-3.861l0.247,-0.372l-0.308,-0.22l-0.008,-0.006l-1.134,-1.708l0.292,-1.939l0.005,-0.008l0.005,-0.008l1.627,-1.131l2.02,0.289Z"/><path d="M363.555,480.074l2.162,-1.504l2.996,0.325l4.592,2.093l4.788,2.244l0.599,0.315l0.551,0.411l0.464,0.514l0.023,-0.015l0.409,0.577l0.32,0.644l0.218,0.696l0.109,0.731l0.021,0.354l0.308,6.684l0.23,7.126l0.097,7.188l-0.018,3.497l-0.071,3.371l-0.298,7.116l-0.466,7.972l-0.591,8.502l-0.674,8.71l-1.424,16.745l-1.213,13.357l-0.031,0.331l-0.001,0.01l-0.897,1.847l-1.806,0.741l-0.01,0l-0.01,0l-1.768,-0.82l-0.819,-1.884l-0.001,-0.01l-0.016,-0.315l-0.644,-12.576l-0.714,-15.56l-0.306,-8.019l-0.233,-7.793l-0.13,-7.294l0.002,-6.529l0.071,-3.114l0.13,-3.255l0.404,-6.755l0.535,-6.787l0.597,-6.448l0.305,-0.167l0.109,-3.722l0.18,-0.103l-3.852,-2.556l-2.504,-1.849l-0.009,-0.006l-1.883,-2.485l0.065,-2.569l0.005,-0.009l0.094,0.052l0.005,-0.009Z"/><path d="M375.375,518.828l0.949,0.169l0.898,0.322l0.057,0.032l0.753,0.456l0.704,0.609l2.384,2.322l3.832,3.863l5.931,6.195l2.329,2.512l1.314,2.739l-0.611,2.505l-0.006,0.008l0.023,0.019l-0.007,0.008l-2.316,0.917l-2.996,-0.799l-0.009,-0.005l-1.954,-1.139l-4.538,-2.726l-2.655,-1.664l-2.679,-1.991l-0.001,0.215l-1.223,-1.037l0.008,0.157l-1.536,1.669l0.009,0.112l-1.393,1.462l0.006,0.06l-1.342,1.392l0.001,0.003l-2.867,2.769l-3.272,2.975l-3.572,3.122l-3.753,3.199l-7.505,6.261l-6.267,5.174l-0.159,0.131l-0.007,0.006l-1.946,0.716l-1.796,-0.647l-0.007,-0.007l-0.007,-0.007l-0.726,-1.783l0.658,-1.958l0.007,-0.008l0.151,-0.19l6.085,-7.636l7.699,-9.505l4.051,-4.897l4.003,-4.733l3.815,-4.375l3.49,-3.823l1.493,-1.545l0.199,-0.174l0.565,-0.47l0.861,-0.499l0.457,-0.171l0.475,-0.161l0.97,-0.157l0.973,0.008Z"/><path d="M396.144,499.232l1.665,1.736l0.006,0.019l-0.574,2.336l-2.313,2.098l-0.009,0.005l-1.521,0.822l-3.863,1.936l-2.48,1.137l-2.671,1.116l-2.729,0.996l-1.346,0.423l-1.311,0.354l-2.809,0.607l-3.181,0.552l-3.418,0.499l-3.519,0.446l-6.802,0.731l-5.445,0.509l-0.136,0.012l-0.01,0.001l-2.053,-0.453l-1.188,-1.416l-0.005,-0.019l0.319,-1.821l1.552,-1.42l0.009,-0.004l0.123,-0.057l4.969,-2.286l6.254,-2.771l3.27,-1.376l3.208,-1.279l3.031,-1.114l2.735,-0.881l1.312,-0.349l1.377,-0.308l2.861,-0.504l2.871,-0.37l2.716,-0.258l4.313,-0.257l1.729,-0.05l0.01,0l3.053,0.658Z"/><path d="M341.207,477.225l4.866,3.379l5.645,3.998l0.489,0.415l0.426,0.486l0.352,0.546l0.27,0.596l0.181,0.633l0.081,0.657l0.006,0l0.032,0.459l0.038,0.466l0.036,0.466l0.034,0.465l0.032,0.465l0.031,0.465l0.03,0.464l0.028,0.464l0.026,0.463l0.007,0.143l0.013,0.32l0.018,0.462l0.016,0.462l0.014,0.462l0.012,0.461l0.011,0.46l0.01,0.461l0.007,0.459l0.007,0.46l0.004,0.458l0.003,0.459l0.002,0.458l-0.001,0.457l-0.001,0.458l-0.004,0.456l-0.005,0.456l-0.006,0.456l-0.007,0.377l-0.002,0.079l-0.015,0.454l-0.017,0.454l-0.018,0.454l-0.02,0.453l-0.021,0.452l-0.023,0.453l-0.024,0.451l-0.026,0.451l-0.028,0.451l-0.029,0.45l-0.031,0.45l-0.032,0.449l-0.034,0.449l-0.035,0.448l-0.037,0.448l-0.039,0.448l-0.04,0.447l-0.042,0.446l-0.04,0.411l-0.004,0.035l-0.051,0.444l-0.053,0.444l-0.055,0.444l-0.057,0.442l-0.057,0.443l-0.06,0.442l-0.061,0.441l-0.062,0.441l-0.065,0.44l-0.065,0.44l-0.067,0.439l-0.069,0.438l-0.07,0.439l-0.072,0.437l-0.073,0.437l-0.075,0.437l-0.077,0.436l-0.078,0.435l-0.079,0.435l-0.045,0.239l-0.039,0.195l-0.089,0.432l-0.091,0.432l-0.092,0.431l-0.094,0.431l-0.095,0.43l-0.097,0.429l-0.098,0.429l-0.1,0.429l-0.101,0.427l-0.022,0.092l-0.085,0.334l-0.11,0.426l-0.111,0.424l-0.113,0.424l-0.114,0.423l-0.116,0.423l-0.117,0.422l-0.119,0.421l-0.12,0.421l-0.071,0.243l-0.054,0.176l-0.13,0.417l-0.132,0.417l-0.133,0.416l-0.135,0.415l-0.136,0.415l-0.138,0.414l-0.139,0.413l-0.14,0.413l-0.142,0.412l-0.143,0.411l-0.145,0.411l-0.146,0.41l-0.148,0.409l-0.149,0.408l-0.151,0.408l-0.152,0.407l-0.153,0.407l-0.155,0.406l-0.156,0.405l-0.076,0.196l-0.085,0.207l-0.164,0.402l-0.166,0.401l-0.168,0.4l-0.168,0.4l-0.17,0.399l-0.172,0.398l-0.173,0.397l-0.174,0.397l-0.176,0.396l-0.177,0.395l-0.179,0.395l-0.18,0.393l-0.181,0.394l-0.183,0.392l-0.184,0.392l-0.185,0.391l-0.187,0.39l-0.188,0.389l-0.189,0.389l-0.191,0.388l-0.193,0.388l-0.168,0.336l-0.026,0.05l-0.198,0.384l-0.2,0.384l-0.201,0.383l-0.203,0.382l-0.204,0.381l-0.205,0.381l-0.206,0.379l-0.208,0.38l-0.21,0.378l-0.21,0.378l-0.212,0.376l-0.213,0.377l-0.215,0.375l-0.215,0.375l-0.218,0.374l-0.218,0.373l-0.22,0.372l-0.221,0.372l-0.222,0.371l-0.224,0.371l-0.225,0.369l-0.226,0.369l-0.228,0.368l-0.16,0.256l-0.07,0.111l-0.232,0.365l-0.234,0.365l-0.235,0.364l-0.237,0.363l-0.237,0.362l-0.239,0.362l-0.241,0.36l-0.241,0.36l-0.243,0.36l-0.244,0.358l-0.246,0.358l-0.246,0.357l-0.248,0.357l-0.249,0.355l-0.251,0.355l-0.251,0.355l-0.253,0.353l-0.254,0.353l-0.256,0.352l-0.256,0.351l-0.258,0.351l-0.26,0.35l-0.26,0.349l-0.232,0.309l-0.03,0.039l-0.265,0.346l-0.266,0.345l-0.268,0.345l-0.269,0.344l-0.27,0.343l-0.271,0.342l-0.273,0.342l-0.273,0.341l-0.275,0.34l-0.276,0.34l-0.278,0.338l-0.278,0.338l-0.28,0.338l-0.281,0.336l-0.282,0.336l-0.283,0.335l-0.285,0.335l-0.285,0.333l-0.287,0.333l-0.288,0.332l-0.29,0.332l-0.29,0.331l-0.292,0.33l-0.293,0.329l-0.294,0.329l-0.295,0.328l-0.296,0.327l-0.298,0.327l-0.299,0.326l-0.299,0.325l-0.302,0.324l-0.302,0.324l-0.303,0.323l-0.305,0.322l-0.305,0.322l-0.307,0.321l-0.308,0.32l-0.31,0.32l-0.31,0.318l-0.311,0.318l-0.313,0.318l-0.314,0.317l-0.315,0.316l-0.316,0.315l-0.317,0.315l-0.094,0.092l-0.226,0.221l-0.321,0.312l-0.322,0.311l-0.324,0.31l-0.324,0.31l-0.326,0.309l-0.327,0.309l-0.327,0.307l-0.33,0.307l-0.33,0.307l-0.331,0.305l-0.332,0.305l-0.334,0.305l-0.335,0.303l-0.335,0.303l-0.337,0.302l-0.338,0.302l-0.339,0.301l-0.34,0.3l-0.342,0.3l-0.342,0.299l-0.344,0.298l-0.344,0.297l-0.346,0.297l-0.347,0.296l-0.348,0.296l-0.349,0.295l-0.35,0.294l-0.351,0.294l-0.352,0.293l-0.354,0.292l-0.354,0.292l-0.356,0.291l-0.356,0.29l-0.358,0.29l-0.054,0.043l-0.302,0.243l-0.008,0.006l-1.951,0.627l-1.787,-0.809l-0.014,-0.015l-0.63,-1.857l0.814,-1.881l0.006,-0.007l0.268,-0.274l0.047,-0.048l0.312,-0.32l0.31,-0.321l0.308,-0.321l0.308,-0.321l0.306,-0.321l0.305,-0.322l0.304,-0.322l0.302,-0.323l0.301,-0.323l0.3,-0.323l0.299,-0.324l0.297,-0.324l0.296,-0.324l0.295,-0.325l0.294,-0.325l0.292,-0.326l0.291,-0.325l0.289,-0.327l0.289,-0.326l0.287,-0.327l0.286,-0.327l0.284,-0.328l0.284,-0.328l0.282,-0.328l0.28,-0.329l0.28,-0.329l0.278,-0.329l0.277,-0.33l0.276,-0.33l0.274,-0.33l0.273,-0.331l0.271,-0.331l0.271,-0.332l0.269,-0.331l0.189,-0.235l0.079,-0.097l0.268,-0.331l0.267,-0.332l0.266,-0.332l0.264,-0.332l0.263,-0.332l0.262,-0.333l0.26,-0.334l0.259,-0.333l0.258,-0.334l0.256,-0.335l0.255,-0.334l0.254,-0.335l0.253,-0.336l0.251,-0.336l0.25,-0.336l0.248,-0.337l0.248,-0.336l0.246,-0.338l0.244,-0.337l0.244,-0.338l0.242,-0.339l0.241,-0.338l0.239,-0.34l0.238,-0.339l0.237,-0.34l0.236,-0.34l0.234,-0.341l0.233,-0.341l0.231,-0.341l0.231,-0.341l0.229,-0.342l0.227,-0.343l0.226,-0.343l0.225,-0.343l0.224,-0.343l0.222,-0.344l0.221,-0.344l0.22,-0.345l0.218,-0.344l0.217,-0.346l0.216,-0.345l0.215,-0.346l0.213,-0.347l0.211,-0.346l0.211,-0.348l0.023,-0.039l0.188,-0.307l0.21,-0.346l0.209,-0.346l0.207,-0.347l0.206,-0.348l0.205,-0.348l0.203,-0.348l0.202,-0.348l0.201,-0.349l0.2,-0.35l0.198,-0.349l0.197,-0.35l0.195,-0.351l0.194,-0.351l0.193,-0.351l0.192,-0.351l0.19,-0.352l0.189,-0.353l0.187,-0.352l0.186,-0.354l0.185,-0.353l0.184,-0.354l0.182,-0.354l0.181,-0.355l0.054,-0.107l0.127,-0.247l0.18,-0.354l0.18,-0.355l0.178,-0.354l0.176,-0.356l0.176,-0.355l0.173,-0.357l0.173,-0.356l0.171,-0.357l0.17,-0.357l0.169,-0.358l0.167,-0.358l0.166,-0.359l0.165,-0.359l0.163,-0.359l0.162,-0.36l0.161,-0.36l0.159,-0.361l0.158,-0.361l0.157,-0.361l0.155,-0.362l0.154,-0.362l0.153,-0.363l0.151,-0.363l0.019,-0.047l0.134,-0.315l0.152,-0.363l0.151,-0.363l0.149,-0.363l0.149,-0.363l0.146,-0.365l0.146,-0.364l0.144,-0.365l0.143,-0.366l0.142,-0.366l0.14,-0.366l0.139,-0.367l0.137,-0.367l0.136,-0.368l0.135,-0.368l0.134,-0.369l0.132,-0.369l0.131,-0.37l0.129,-0.37l0.128,-0.37l0.127,-0.371l0.126,-0.371l0.064,-0.192l0.062,-0.179l0.129,-0.371l0.127,-0.371l0.125,-0.371l0.125,-0.372l0.123,-0.372l0.122,-0.373l0.12,-0.374l0.119,-0.374l0.118,-0.374l0.116,-0.375l0.115,-0.376l0.114,-0.376l0.112,-0.376l0.111,-0.377l0.11,-0.378l0.108,-0.378l0.107,-0.379l0.106,-0.379l0.104,-0.379l0.043,-0.16l0.064,-0.22l0.109,-0.378l0.108,-0.38l0.106,-0.379l0.105,-0.381l0.103,-0.381l0.102,-0.382l0.101,-0.382l0.1,-0.383l0.077,-0.301l0.022,-0.082l0.102,-0.383l0.101,-0.383l0.1,-0.384l0.099,-0.385l0.097,-0.385l0.096,-0.386l0.094,-0.386l0.093,-0.387l0.092,-0.388l0.041,-0.175l0.053,-0.213l0.096,-0.388l0.095,-0.388l0.093,-0.389l0.092,-0.39l0.09,-0.39l0.089,-0.392l0.088,-0.392l0.087,-0.392l0.085,-0.394l0.084,-0.394l0.082,-0.395l0.081,-0.395l0.08,-0.396l0.079,-0.397l0.077,-0.398l0.075,-0.398l0.075,-0.399l0.073,-0.4l0.072,-0.401l0.005,-0.031l0.071,-0.369l0.076,-0.401l0.075,-0.402l0.073,-0.403l0.072,-0.403l0.071,-0.405l0.069,-0.405l0.068,-0.405l0.066,-0.407l0.065,-0.407l0.064,-0.409l0.062,-0.408l0.061,-0.41l0.06,-0.411l0.058,-0.411l0.057,-0.412l0.056,-0.413l0.054,-0.414l0.053,-0.414l0.009,-0.072l0.047,-0.343l0.055,-0.416l0.054,-0.417l0.052,-0.417l0.052,-0.418l0.049,-0.42l0.049,-0.42l0.047,-0.42l0.046,-0.422l0.044,-0.422l0.043,-0.424l0.041,-0.424l0.04,-0.425l0.039,-0.426l0.037,-0.427l0.036,-0.427l0.035,-0.429l0.023,-0.296l0.012,-0.133l0.037,-0.43l0.036,-0.431l0.034,-0.432l0.033,-0.433l0.032,-0.434l0.007,-0.106l-4.07,-3.609l-3.524,-3.331l-0.007,-0.007l-1.434,-2.654l0.569,-2.567l0.012,-0.015l2.395,-1.138l2.888,0.836Z"/><path d="M351.376,463.812l0.12,0.188l0.594,-0.315l2.812,5.57l0.121,-0.239l2.79,-0.48l0.054,-0.113l14.664,-3.446l7.506,-1.757l7.238,-1.633l6.714,-1.43l5.946,-1.148l2.804,-0.471l2.909,-0.432l5.99,-0.754l5.985,-0.62l5.573,-0.488l0.095,0l0.729,0.016l0.794,0.156l0.742,0.287l0.668,0.403l0.578,0.502l0.474,0.584l2.813,3.847l2.61,3.661l0.906,2.881l-1.029,2.409l-0.007,0.007l0.061,0.071l-0.008,0.006l-2.48,0.563l-2.827,-1.322l-0.008,-0.007l-2.066,-1.796l-2.928,-2.851l-0.07,0.192l-3.406,0.654l-0.089,0.265l-5.758,0.981l-0.142,0.478l-6.217,1.442l-6.206,1.308l-2.999,0.566l-2.88,0.49l-6.065,0.881l-6.805,0.855l-7.295,0.824l-7.529,0.784l-13.235,1.269l-0.587,-0.003l-0.494,-0.083l-0.077,-0.013l-0.538,-0.188l-0.493,-0.268l-0.436,-0.337l-0.386,-0.379l0.017,-0.016l-0.296,-0.442l-0.218,-0.476l-3.347,-7.928l-0.138,-0.329l-0.004,-0.009l-0.073,-2.05l1.256,-1.501l0.009,-0.004l0.009,-0.005l1.915,-0.085l1.635,1.27l0.005,0.008Z"/><path d="M375.568,438.122l0.37,0.147l0.362,0.148l0.36,0.149l0.357,0.149l0.099,0.042l0.25,0.115l0.344,0.161l0.341,0.161l0.338,0.162l0.336,0.162l0.333,0.162l0.33,0.164l0.327,0.163l0.325,0.165l0.322,0.164l0.319,0.166l0.219,0.114l0.095,0.054l0.306,0.176l0.303,0.177l0.3,0.176l0.298,0.178l0.295,0.177l0.292,0.178l0.29,0.178l0.145,0.09l0.139,0.093l0.276,0.187l0.275,0.188l0.272,0.188l0.269,0.188l0.267,0.188l0.264,0.188l0.261,0.189l0.259,0.189l0.102,0.074l0.149,0.121l0.244,0.2l0.241,0.199l0.239,0.2l0.237,0.199l0.234,0.2l0.232,0.199l0.229,0.2l0.227,0.2l0.224,0.199l0.008,0.008l0.204,0.201l0.21,0.208l0.207,0.209l0.205,0.208l0.203,0.208l0.003,0.003l0.189,0.212l0.19,0.215l0.187,0.214l0.185,0.215l0.182,0.214l0.17,0.222l0.167,0.222l0.165,0.221l0.163,0.221l0.16,0.22l0.159,0.22l0.156,0.219l0.153,0.218l0.152,0.219l0.149,0.217l0.147,0.217l0.034,0.052l0.104,0.169l0.135,0.222l0.132,0.221l0.13,0.221l0.128,0.219l0.126,0.219l0.124,0.218l0.121,0.218l0.12,0.217l0.117,0.216l0.115,0.216l0.113,0.214l0.111,0.214l0.109,0.214l0.016,0.03l0.087,0.185l0.1,0.215l0.098,0.214l0.095,0.213l0.094,0.213l0.092,0.211l0.09,0.211l0.088,0.21l0.086,0.209l0.084,0.208l0.082,0.207l0.08,0.207l0.078,0.205l0.077,0.205l0.074,0.204l0.073,0.203l0.063,0.179l0.008,0.023l0.065,0.203l0.064,0.202l0.063,0.201l0.06,0.2l0.059,0.199l0.056,0.198l0.056,0.197l0.053,0.196l0.052,0.195l0.05,0.194l0.048,0.193l0.047,0.192l0.045,0.191l0.043,0.19l0.042,0.189l0.04,0.188l0.039,0.187l0.037,0.186l0.035,0.185l0.023,0.122l0.01,0.062l0.029,0.184l0.028,0.183l0.027,0.181l0.025,0.181l0.023,0.179l0.022,0.178l0.021,0.177l0.019,0.176l0.018,0.175l0.016,0.174l0.016,0.172l0.013,0.172l0.013,0.17l0.011,0.169l0.01,0.168l0.009,0.166l0.007,0.166l0.006,0.164l0.005,0.164l0.004,0.162l0.002,0.161l0.002,0.159l0,0.159l-0.001,0.157l-0.002,0.156l-0.003,0.155l-0.004,0.153l-0.005,0.153l-0.006,0.151l-0.008,0.15l-0.008,0.149l-0.009,0.147l-0.01,0.146l-0.011,0.146l-0.012,0.143l-0.013,0.143l-0.014,0.141l-0.015,0.14l-0.015,0.139l-0.017,0.138l-0.017,0.136l-0.018,0.141l-0.038,0.26l-0.041,0.262l-0.044,0.256l-0.031,0.166l-0.017,0.085l-0.052,0.246l-0.054,0.24l-0.057,0.236l-0.058,0.23l-0.061,0.225l-0.062,0.22l-0.063,0.215l-0.065,0.209l-0.066,0.205l-0.068,0.199l-0.068,0.194l-0.068,0.189l-0.07,0.183l-0.07,0.179l-0.07,0.173l-0.071,0.168l-0.07,0.164l-0.071,0.158l-0.07,0.152l-0.07,0.148l-0.069,0.143l-0.069,0.137l-0.067,0.133l-0.067,0.128l-0.066,0.122l-0.065,0.118l-0.063,0.112l-0.061,0.108l-0.061,0.102l-0.058,0.098l-0.056,0.092l-0.057,0.094l-0.1,0.154l-0.092,0.141l-0.082,0.121l-0.05,0.073l-0.021,0.029l-0.059,0.087l-0.044,0.058l-0.006,0.008l-1.72,1.162l-1.894,-0.192l-0.017,-0.01l-1.048,-1.506l0.08,-2.108l0.004,-0.01l0.015,-0.044l-0.026,0.046l0.007,-0.034l0.004,-0.016l0.009,-0.04l-0.021,0.042l0.017,-0.074l0.011,-0.072l0.016,-0.095l0.005,-0.046l0.007,-0.055l0.009,-0.06l0.008,-0.063l0.008,-0.068l0.009,-0.072l0.008,-0.075l0.008,-0.08l0.007,-0.083l0.007,-0.087l0.007,-0.091l0.006,-0.095l0.005,-0.098l0.004,-0.101l0.003,-0.105l0.002,-0.108l0.002,-0.112l-0.001,-0.115l-0.001,-0.118l-0.003,-0.121l-0.005,-0.124l-0.006,-0.128l-0.008,-0.13l-0.01,-0.133l-0.011,-0.136l-0.014,-0.139l-0.016,-0.142l-0.018,-0.144l-0.02,-0.147l-0.022,-0.149l-0.025,-0.153l-0.028,-0.154l-0.01,-0.054l-0.018,-0.103l-0.03,-0.16l-0.032,-0.162l-0.035,-0.171l-0.019,-0.076l-0.019,-0.084l-0.021,-0.084l-0.021,-0.085l-0.021,-0.086l-0.023,-0.086l-0.023,-0.086l-0.024,-0.088l-0.025,-0.088l-0.026,-0.088l-0.027,-0.089l-0.027,-0.089l-0.029,-0.09l-0.029,-0.091l-0.03,-0.091l-0.031,-0.092l-0.032,-0.092l-0.033,-0.093l-0.034,-0.094l-0.034,-0.093l-0.036,-0.095l-0.037,-0.095l-0.037,-0.095l-0.039,-0.097l-0.04,-0.096l-0.04,-0.097l-0.042,-0.098l-0.043,-0.098l-0.044,-0.099l-0.045,-0.099l-0.046,-0.1l-0.047,-0.1l-0.048,-0.101l-0.05,-0.101l-0.05,-0.102l-0.052,-0.103l-0.053,-0.103l-0.054,-0.103l-0.055,-0.104l-0.056,-0.104l-0.058,-0.105l-0.059,-0.106l-0.02,-0.035l-0.038,-0.071l-0.058,-0.108l-0.06,-0.108l-0.061,-0.108l-0.062,-0.109l-0.064,-0.11l-0.064,-0.11l-0.067,-0.111l-0.067,-0.111l-0.069,-0.112l-0.07,-0.112l-0.072,-0.113l-0.073,-0.114l-0.075,-0.114l-0.076,-0.114l-0.078,-0.115l-0.079,-0.116l-0.08,-0.116l-0.082,-0.117l-0.084,-0.117l-0.009,-0.014l-0.073,-0.105l-0.083,-0.12l-0.085,-0.121l-0.087,-0.121l-0.088,-0.122l-0.089,-0.122l-0.092,-0.123l-0.093,-0.124l-0.095,-0.124l-0.096,-0.124l-0.098,-0.125l-0.1,-0.126l-0.102,-0.127l-0.103,-0.127l-0.105,-0.127l-0.107,-0.128l-0.093,-0.11l-0.015,-0.019l-0.106,-0.132l-0.107,-0.133l-0.109,-0.134l-0.111,-0.134l-0.113,-0.135l-0.115,-0.136l-0.117,-0.136l-0.119,-0.137l-0.121,-0.137l-0.123,-0.138l-0.125,-0.139l-0.127,-0.139l-0.128,-0.14l-0.1,-0.107l-0.03,-0.035l-0.125,-0.147l-0.127,-0.148l-0.129,-0.149l-0.131,-0.149l-0.134,-0.15l-0.136,-0.151l-0.138,-0.151l-0.14,-0.153l-0.142,-0.153l-0.145,-0.153l-0.147,-0.154l0,-0.001l-0.139,-0.164l-0.141,-0.165l-0.143,-0.166l-0.146,-0.166l-0.146,-0.166l-0.002,-0.002l-0.142,-0.176l-0.145,-0.177l-0.147,-0.177l-0.15,-0.179l-0.146,-0.173l-0.005,-0.008l-0.145,-0.19l-0.148,-0.191l-0.15,-0.192l-0.152,-0.194l-0.155,-0.195l-0.158,-0.196l-0.161,-0.197l-0.163,-0.198l-0.165,-0.199l-0.102,-0.121l-0.063,-0.084l-0.161,-0.212l-0.164,-0.213l-0.166,-0.215l-0.17,-0.216l-0.172,-0.217l-0.175,-0.218l-0.178,-0.22l-0.18,-0.221l-0.091,-0.11l-0.089,-0.117l-0.179,-0.232l-0.182,-0.234l-0.184,-0.235l-0.188,-0.236l-0.19,-0.238l-0.194,-0.24l-0.196,-0.24l-0.062,-0.074l-0.132,-0.175l-0.195,-0.253l-0.197,-0.255l-0.201,-0.256l-0.204,-0.258l-0.207,-0.259l-0.21,-0.261l-0.213,-0.262l-0.217,-0.264l-0.219,-0.265l-0.223,-0.267l-0.163,-0.193l-0.061,-0.078l-0.222,-0.279l-0.225,-0.281l-0.228,-0.283l-0.238,-0.289l-0.006,-0.007l-1.237,-2.663l0.364,-2.329l0.006,-0.008l0.006,-0.008l2.106,-1.089l2.907,0.352Z"/></g><g><path d="M242.128,449.95l1.016,1.773l0.014,0.09l0.034,0.231l0.022,0.157l0.03,0.214l0.033,0.24l0.036,0.272l0.04,0.305l0.044,0.337l0.046,0.37l0.05,0.402l0.051,0.432l0.054,0.463l0.056,0.494l0.058,0.523l0.059,0.551l0.06,0.581l0.061,0.608l0.062,0.636l0.062,0.663l0.062,0.69l0.061,0.715l0.062,0.741l0.06,0.765l0.03,0.394l0.029,0.398l0.029,0.404l0.029,0.41l0.028,0.416l0.028,0.422l0.027,0.428l0.027,0.433l0.027,0.439l0.025,0.444l0.025,0.45l0.025,0.456l0.024,0.46l0.023,0.466l0.022,0.472l0.021,0.476l0.021,0.481l0.02,0.487l0.014,0.373l0.004,0.118l0.016,0.497l0.015,0.501l0.014,0.506l0.013,0.511l0.011,0.515l0.011,0.52l0.009,0.525l0.008,0.529l0.007,0.533l0.006,0.538l0.004,0.542l0.003,0.546l0.002,0.551l0,0.554l-0.001,0.559l-0.003,0.562l-0.004,0.566l-0.006,0.571l-0.007,0.574l-0.009,0.577l-0.011,0.582l-0.012,0.585l-0.014,0.588l-0.016,0.592l-0.018,0.595l-0.02,0.599l-0.021,0.602l-0.023,0.605l-0.025,0.609l-0.028,0.611l-0.029,0.615l-0.031,0.617l-0.034,0.62l-0.035,0.624l-0.038,0.626l-0.04,0.628l-0.042,0.632l-0.044,0.634l-0.047,0.636l-0.045,0.586l-0.004,0.053l-0.055,0.641l-0.058,0.644l-0.06,0.645l-0.062,0.648l-0.065,0.65l-0.068,0.652l-0.07,0.654l-0.073,0.656l-0.075,0.658l-0.079,0.66l-0.081,0.662l-0.083,0.663l-0.087,0.665l-0.09,0.667l-0.092,0.668l-0.096,0.669l-0.098,0.671l-0.101,0.673l-0.019,0.121l-0.089,0.552l-0.111,0.674l-0.115,0.675l-0.118,0.677l-0.121,0.677l-0.124,0.678l-0.127,0.677l-0.066,0.342l-0.065,0.34l-0.067,0.341l-0.068,0.34l-0.068,0.341l-0.069,0.341l-0.071,0.341l-0.071,0.341l-0.071,0.341l-0.073,0.342l-0.074,0.341l-0.074,0.342l-0.076,0.342l-0.076,0.342l-0.077,0.342l-0.079,0.342l-0.079,0.342l-0.08,0.343l-0.081,0.342l-0.082,0.343l-0.056,0.234l-0.027,0.108l-0.087,0.342l-0.087,0.342l-0.088,0.341l-0.089,0.342l-0.091,0.342l-0.091,0.342l-0.092,0.342l-0.093,0.342l-0.094,0.342l-0.095,0.341l-0.096,0.342l-0.098,0.342l-0.098,0.341l-0.099,0.342l-0.1,0.341l-0.101,0.342l-0.102,0.341l-0.103,0.341l-0.104,0.342l-0.106,0.341l-0.106,0.34l-0.107,0.341l-0.109,0.341l-0.109,0.34l-0.111,0.341l-0.111,0.34l-0.113,0.34l-0.114,0.34l-0.114,0.339l-0.116,0.34l-0.117,0.339l-0.04,0.115l-0.081,0.223l-0.123,0.337l-0.124,0.337l-0.126,0.337l-0.126,0.337l-0.128,0.336l-0.128,0.336l-0.13,0.336l-0.131,0.335l-0.132,0.336l-0.133,0.334l-0.135,0.335l-0.135,0.334l-0.137,0.334l-0.138,0.333l-0.139,0.334l-0.14,0.332l-0.142,0.333l-0.142,0.332l-0.144,0.331l-0.145,0.332l-0.146,0.331l-0.148,0.33l-0.149,0.33l-0.149,0.33l-0.152,0.329l-0.152,0.328l-0.153,0.329l-0.079,0.165l-0.079,0.161l-0.16,0.325l-0.162,0.325l-0.164,0.324l-0.164,0.323l-0.166,0.323l-0.167,0.322l-0.168,0.322l-0.17,0.321l-0.171,0.321l-0.172,0.32l-0.173,0.32l-0.175,0.318l-0.151,0.273l-0.026,0.045l-0.18,0.316l-0.182,0.315l-0.184,0.314l-0.185,0.314l-0.186,0.313l-0.187,0.312l-0.189,0.312l-0.19,0.311l-0.191,0.31l-0.193,0.309l-0.194,0.309l-0.195,0.308l-0.197,0.307l-0.145,0.225l-0.054,0.08l-0.203,0.303l-0.205,0.303l-0.206,0.301l-0.207,0.3l-0.209,0.3l-0.21,0.299l-0.211,0.298l-0.213,0.297l-0.214,0.296l-0.216,0.295l-0.217,0.295l-0.218,0.293l-0.22,0.293l-0.221,0.291l-0.222,0.291l-0.224,0.289l-0.226,0.289l-0.226,0.288l-0.228,0.286l-0.23,0.286l-0.231,0.285l-0.232,0.283l-0.234,0.283l-0.235,0.281l-0.237,0.281l-0.238,0.279l-0.24,0.278l-0.241,0.278l-0.07,0.08l-0.175,0.194l-0.248,0.272l-0.248,0.27l-0.251,0.27l-0.252,0.268l-0.253,0.268l-0.255,0.266l-0.256,0.264l-0.258,0.264l-0.259,0.262l-0.26,0.262l-0.262,0.259l-0.264,0.259l-0.265,0.257l-0.266,0.256l-0.268,0.255l-0.269,0.253l-0.271,0.252l-0.272,0.251l-0.274,0.25l-0.275,0.248l-0.277,0.246l-0.278,0.246l-0.28,0.244l-0.281,0.242l-0.283,0.241l-0.284,0.24l-0.286,0.238l-0.136,0.113l-0.152,0.123l-0.291,0.232l-0.293,0.231l-0.294,0.23l-0.295,0.228l-0.297,0.227l-0.298,0.225l-0.3,0.223l-0.302,0.222l-0.303,0.221l-0.304,0.219l-0.306,0.217l-0.307,0.216l-0.309,0.214l-0.31,0.212l-0.312,0.211l-0.314,0.209l-0.314,0.207l-0.317,0.206l-0.317,0.204l-0.32,0.203l-0.321,0.201l-0.322,0.199l-0.324,0.197l-0.325,0.196l-0.327,0.193l-0.15,0.089l-0.179,0.102l-0.332,0.187l-0.333,0.185l-0.335,0.184l-0.336,0.181l-0.338,0.18l-0.339,0.178l-0.34,0.177l-0.342,0.174l-0.344,0.172l-0.345,0.171l-0.346,0.169l-0.348,0.167l-0.35,0.165l-0.35,0.163l-0.353,0.161l-0.353,0.159l-0.356,0.157l-0.356,0.155l-0.358,0.154l-0.36,0.151l-0.361,0.149l-0.363,0.148l-0.364,0.145l-0.365,0.144l-0.367,0.141l-0.368,0.139l-0.37,0.138l-0.371,0.135l-0.373,0.133l-0.374,0.132l-0.376,0.129l-0.377,0.127l-0.379,0.125l-0.38,0.123l-0.381,0.121l-0.383,0.119l-0.384,0.116l-0.386,0.115l-0.167,0.048l-0.221,0.062l-0.39,0.107l-0.391,0.105l-0.393,0.102l-0.394,0.101l-0.396,0.098l-0.397,0.096l-0.399,0.094l-0.399,0.091l-0.402,0.09l-0.403,0.087l-0.404,0.085l-0.405,0.082l-0.407,0.081l-0.399,0.076l-0.009,0.001l-2.723,-0.467l-1.623,-2.048l-0.005,-0.019l0.409,-2.576l2.141,-1.749l0.01,-0.004l0.363,-0.124l0.352,-0.123l0.349,-0.125l0.348,-0.127l0.345,-0.128l0.344,-0.13l0.341,-0.132l0.34,-0.133l0.337,-0.134l0.336,-0.137l0.333,-0.137l0.332,-0.14l0.329,-0.14l0.328,-0.143l0.186,-0.082l0.14,-0.06l0.325,-0.142l0.323,-0.144l0.322,-0.145l0.319,-0.146l0.318,-0.148l0.315,-0.149l0.314,-0.151l0.312,-0.153l0.31,-0.154l0.309,-0.155l0.306,-0.157l0.305,-0.158l0.303,-0.159l0.301,-0.161l0.299,-0.163l0.297,-0.164l0.296,-0.165l0.294,-0.166l0.292,-0.168l0.291,-0.17l0.288,-0.17l0.287,-0.172l0.286,-0.174l0.283,-0.174l0.282,-0.176l0.28,-0.178l0.279,-0.178l0.276,-0.18l0.275,-0.182l0.274,-0.182l0.272,-0.184l0.27,-0.185l0.268,-0.187l0.267,-0.187l0.265,-0.189l0.264,-0.19l0.262,-0.192l0.26,-0.192l0.14,-0.105l0.12,-0.088l0.259,-0.191l0.258,-0.194l0.256,-0.194l0.254,-0.195l0.253,-0.197l0.252,-0.198l0.25,-0.2l0.249,-0.2l0.247,-0.202l0.245,-0.202l0.244,-0.204l0.243,-0.206l0.241,-0.206l0.24,-0.208l0.238,-0.208l0.237,-0.21l0.235,-0.211l0.234,-0.212l0.233,-0.213l0.231,-0.215l0.229,-0.215l0.228,-0.217l0.227,-0.218l0.226,-0.219l0.224,-0.219l0.116,-0.116l0.107,-0.104l0.224,-0.22l0.222,-0.22l0.221,-0.222l0.22,-0.223l0.218,-0.224l0.217,-0.225l0.216,-0.226l0.214,-0.227l0.213,-0.228l0.212,-0.23l0.21,-0.23l0.209,-0.231l0.208,-0.233l0.207,-0.233l0.205,-0.235l0.204,-0.235l0.203,-0.237l0.201,-0.238l0.2,-0.238l0.199,-0.24l0.198,-0.241l0.197,-0.241l0.195,-0.243l0.194,-0.243l0.193,-0.245l0.191,-0.245l0.191,-0.247l0.134,-0.176l0.056,-0.071l0.191,-0.245l0.191,-0.246l0.189,-0.248l0.188,-0.248l0.187,-0.249l0.185,-0.251l0.185,-0.251l0.183,-0.252l0.182,-0.253l0.182,-0.254l0.18,-0.255l0.178,-0.256l0.178,-0.257l0.176,-0.258l0.176,-0.258l0.174,-0.26l0.173,-0.26l0.172,-0.262l0.171,-0.262l0.17,-0.263l0.169,-0.264l0.167,-0.265l0.167,-0.265l0.165,-0.267l0.164,-0.267l0.163,-0.268l0.162,-0.269l0.161,-0.27l0.043,-0.071l0.12,-0.198l0.163,-0.268l0.162,-0.27l0.161,-0.271l0.159,-0.271l0.159,-0.272l0.157,-0.273l0.157,-0.274l0.155,-0.274l0.155,-0.276l0.153,-0.276l0.153,-0.277l0.151,-0.277l0.15,-0.279l0.022,-0.039l0.131,-0.238l0.151,-0.278l0.151,-0.279l0.15,-0.279l0.149,-0.28l0.148,-0.281l0.147,-0.282l0.145,-0.282l0.145,-0.283l0.144,-0.283l0.143,-0.285l0.142,-0.285l0.141,-0.286l0.069,-0.142l0.073,-0.143l0.144,-0.285l0.143,-0.285l0.141,-0.286l0.141,-0.287l0.14,-0.288l0.139,-0.288l0.138,-0.288l0.137,-0.29l0.136,-0.29l0.135,-0.291l0.135,-0.291l0.133,-0.292l0.132,-0.292l0.132,-0.293l0.13,-0.294l0.13,-0.294l0.129,-0.295l0.127,-0.295l0.127,-0.296l0.126,-0.296l0.125,-0.297l0.124,-0.297l0.123,-0.298l0.123,-0.299l0.121,-0.298l0.121,-0.3l0.119,-0.3l0.078,-0.198l0.042,-0.101l0.122,-0.3l0.121,-0.299l0.12,-0.301l0.119,-0.3l0.118,-0.301l0.117,-0.302l0.117,-0.302l0.115,-0.302l0.115,-0.303l0.114,-0.303l0.113,-0.304l0.112,-0.304l0.112,-0.304l0.11,-0.305l0.11,-0.305l0.108,-0.305l0.108,-0.306l0.107,-0.306l0.106,-0.307l0.106,-0.306l0.104,-0.307l0.104,-0.308l0.103,-0.307l0.102,-0.308l0.101,-0.308l0.101,-0.308l0.099,-0.309l0.099,-0.309l0.098,-0.309l0.097,-0.309l0.096,-0.31l0.031,-0.098l0.067,-0.211l0.097,-0.309l0.097,-0.31l0.095,-0.309l0.095,-0.31l0.095,-0.31l0.093,-0.31l0.093,-0.31l0.091,-0.31l0.091,-0.311l0.091,-0.31l0.089,-0.311l0.089,-0.311l0.088,-0.311l0.087,-0.311l0.087,-0.311l0.085,-0.311l0.085,-0.311l0.084,-0.312l0.084,-0.311l0.082,-0.308l0.163,-0.626l0.16,-0.623l0.157,-0.623l0.155,-0.622l0.151,-0.623l0.148,-0.622l0.12,-0.51l0.027,-0.111l0.146,-0.621l0.144,-0.62l0.141,-0.62l0.138,-0.619l0.135,-0.618l0.133,-0.618l0.13,-0.617l0.127,-0.616l0.125,-0.615l0.122,-0.614l0.119,-0.612l0.117,-0.612l0.115,-0.61l0.111,-0.609l0.11,-0.608l0.107,-0.606l0.104,-0.605l0.102,-0.603l0.008,-0.05l0.095,-0.55l0.101,-0.599l0.098,-0.598l0.096,-0.595l0.094,-0.593l0.092,-0.592l0.089,-0.589l0.087,-0.587l0.085,-0.585l0.082,-0.582l0.081,-0.581l0.078,-0.577l0.076,-0.575l0.075,-0.573l0.072,-0.569l0.07,-0.568l0.068,-0.564l0.066,-0.561l0.064,-0.558l0.063,-0.556l0.06,-0.552l0.059,-0.549l0.056,-0.545l0.055,-0.543l0.053,-0.539l0.052,-0.535l0.049,-0.532l0.048,-0.529l0.046,-0.524l0.045,-0.521l0.043,-0.517l0.041,-0.513l0.04,-0.509l0.038,-0.505l0.037,-0.501l0.035,-0.497l0.034,-0.493l0.032,-0.488l0.031,-0.484l0.03,-0.479l0.006,-0.115l0.023,-0.36l0.029,-0.47l0.028,-0.466l0.026,-0.46l0.025,-0.456l0.024,-0.451l0.022,-0.446l0.021,-0.442l0.02,-0.435l0.019,-0.431l0.018,-0.426l0.017,-0.42l0.016,-0.415l0.015,-0.409l0.013,-0.404l0.013,-0.398l0.012,-0.393l0.011,-0.387l0.01,-0.379l0.017,-0.746l0.014,-0.721l0.011,-0.695l0.009,-0.671l0.005,-0.644l0.004,-0.619l0.001,-0.591l-0.001,-0.564l-0.002,-0.536l-0.004,-0.508l-0.006,-0.478l-0.006,-0.449l-0.007,-0.418l-0.008,-0.388l-0.008,-0.356l-0.009,-0.324l-0.008,-0.292l-0.008,-0.259l-0.008,-0.224l-0.007,-0.201l-0.006,-0.148l-0.008,-0.208l-0.003,-0.068l-0.001,-0.01l0.65,-1.941l1.717,-0.958l0.019,-0.002l1.883,0.594Z"/><path d="M241.602,486.93l1.113,1.73l0.041,0.184l0.027,0.119l0.02,0.09l0.068,0.295l0.09,0.379l0.052,0.217l0.058,0.238l0.064,0.258l0.069,0.276l0.075,0.294l0.081,0.313l0.086,0.331l0.093,0.347l0.098,0.365l0.104,0.382l0.11,0.398l0.117,0.414l0.122,0.43l0.129,0.445l0.135,0.46l0.141,0.475l0.148,0.488l0.154,0.503l0.161,0.516l0.167,0.53l0.174,0.542l0.18,0.555l0.188,0.567l0.194,0.579l0.201,0.592l0.103,0.297l0.105,0.302l0.047,0.135l0.058,0.17l0.107,0.308l0.108,0.31l0.11,0.313l0.111,0.315l0.114,0.318l0.115,0.321l0.117,0.323l0.118,0.325l0.121,0.327l0.122,0.33l0.124,0.331l0.126,0.334l0.128,0.336l0.129,0.339l0.132,0.34l0.133,0.342l0.135,0.344l0.137,0.346l0.139,0.348l0.141,0.349l0.142,0.352l0.144,0.353l0.147,0.355l0.148,0.356l0.15,0.358l0.152,0.359l0.154,0.361l0.156,0.363l0.157,0.363l0.16,0.366l0.161,0.366l0.164,0.368l0.165,0.369l0.168,0.37l0.169,0.371l0.172,0.372l0.173,0.374l0.175,0.374l0.177,0.375l0.18,0.377l0.181,0.377l0.015,0.032l0.165,0.347l0.182,0.38l0.184,0.38l0.186,0.382l0.188,0.382l0.19,0.383l0.192,0.383l0.194,0.384l0.196,0.384l0.198,0.385l0.2,0.385l0.202,0.385l0.205,0.386l0.206,0.386l0.208,0.386l0.211,0.386l0.212,0.387l0.215,0.386l0.157,0.28l0.059,0.108l0.215,0.388l0.217,0.388l0.22,0.388l0.222,0.388l0.223,0.388l0.226,0.388l0.228,0.387l0.23,0.388l0.233,0.386l0.234,0.387l0.236,0.386l0.239,0.385l0.241,0.386l0.243,0.384l0.245,0.384l0.247,0.383l0.247,0.379l0.002,0.004l0.247,0.385l0.249,0.384l0.251,0.383l0.253,0.382l0.255,0.382l0.258,0.38l0.26,0.38l0.262,0.379l0.264,0.377l0.266,0.377l0.269,0.376l0.271,0.374l0.273,0.373l0.275,0.372l0.277,0.371l0.184,0.243l0.093,0.128l0.275,0.373l0.278,0.372l0.279,0.37l0.282,0.369l0.284,0.368l0.286,0.366l0.289,0.364l0.294,0.367l0.143,0.177l0.147,0.181l0.148,0.18l0.148,0.179l0.148,0.18l0.15,0.178l0.149,0.179l0.151,0.178l0.151,0.177l0.151,0.177l0.108,0.125l0.043,0.053l0.149,0.18l0.149,0.179l0.149,0.179l0.151,0.178l0.151,0.178l0.151,0.178l0.152,0.177l0.153,0.176l0.153,0.176l0.154,0.176l0.155,0.175l0.155,0.175l0.082,0.091l0.072,0.085l0.154,0.176l0.154,0.176l0.154,0.176l0.155,0.175l0.156,0.175l0.157,0.174l0.157,0.174l0.157,0.173l0.159,0.173l0.159,0.172l0.159,0.172l0.16,0.171l0.118,0.125l0.042,0.047l0.158,0.173l0.159,0.173l0.159,0.173l0.16,0.172l0.161,0.172l0.162,0.171l0.162,0.171l0.162,0.17l0.164,0.169l0.164,0.17l0.164,0.168l0.166,0.168l0.166,0.167l0.167,0.167l0.167,0.167l0.169,0.165l0.168,0.166l0.17,0.164l0.17,0.164l0.171,0.164l0.172,0.163l0.172,0.162l0.173,0.162l0.174,0.161l0.174,0.161l0.176,0.16l0.099,0.09l0.075,0.071l0.174,0.163l0.174,0.162l0.174,0.161l0.176,0.161l0.176,0.161l0.178,0.159l0.177,0.159l0.179,0.159l0.179,0.158l0.181,0.157l0.18,0.157l0.182,0.156l0.182,0.155l0.184,0.155l0.184,0.154l0.184,0.154l0.186,0.153l0.186,0.152l0.187,0.151l0.188,0.151l0.189,0.151l0.189,0.149l0.19,0.149l0.191,0.148l0.192,0.148l0.138,0.105l0.054,0.043l0.191,0.149l0.193,0.149l0.193,0.148l0.193,0.147l0.195,0.147l0.195,0.146l0.197,0.146l0.197,0.144l0.198,0.144l0.199,0.143l0.2,0.143l0.2,0.142l0.202,0.141l0.202,0.14l0.203,0.14l0.204,0.139l0.205,0.138l0.206,0.137l0.207,0.137l0.207,0.136l0.209,0.135l0.209,0.135l0.21,0.134l0.152,0.095l0.059,0.039l0.21,0.135l0.211,0.135l0.212,0.135l0.213,0.133l0.214,0.133l0.215,0.132l0.216,0.131l0.217,0.131l0.218,0.129l0.218,0.129l0.22,0.128l0.221,0.128l0.222,0.126l0.222,0.126l0.224,0.125l0.224,0.124l0.226,0.123l0.227,0.122l0.227,0.122l0.229,0.121l0.229,0.119l0.231,0.119l0.232,0.119l0.232,0.117l0.234,0.116l0.235,0.116l0.235,0.115l0.237,0.113l0.238,0.113l0.239,0.112l0.239,0.112l0.241,0.11l0.242,0.109l0.243,0.108l0.244,0.108l0.245,0.107l0.028,0.011l0.218,0.097l0.246,0.109l0.247,0.107l0.248,0.107l0.25,0.106l0.25,0.104l0.252,0.104l0.253,0.103l0.254,0.102l0.255,0.1l0.256,0.1l0.257,0.099l0.259,0.098l0.277,0.103l2.138,1.782l0.434,2.531l-0.005,0.019l-1.604,2.016l-2.731,0.519l-0.01,-0.001l-0.299,-0.047l-0.306,-0.05l-0.305,-0.052l-0.305,-0.053l-0.304,-0.054l-0.304,-0.056l-0.302,-0.057l-0.302,-0.059l-0.302,-0.06l-0.3,-0.061l-0.3,-0.063l-0.3,-0.064l-0.298,-0.065l-0.265,-0.059l-0.033,-0.008l-0.296,-0.072l-0.295,-0.073l-0.295,-0.074l-0.294,-0.075l-0.293,-0.077l-0.292,-0.078l-0.292,-0.08l-0.29,-0.081l-0.291,-0.082l-0.289,-0.083l-0.289,-0.084l-0.288,-0.086l-0.287,-0.087l-0.286,-0.089l-0.286,-0.089l-0.285,-0.091l-0.285,-0.092l-0.283,-0.093l-0.283,-0.095l-0.282,-0.096l-0.281,-0.097l-0.281,-0.098l-0.28,-0.099l-0.279,-0.101l-0.278,-0.101l-0.278,-0.103l-0.277,-0.104l-0.276,-0.106l-0.275,-0.106l-0.275,-0.108l-0.274,-0.108l-0.273,-0.11l-0.272,-0.111l-0.272,-0.112l-0.271,-0.114l-0.27,-0.114l-0.076,-0.033l-0.192,-0.085l-0.267,-0.121l-0.266,-0.121l-0.265,-0.123l-0.264,-0.123l-0.264,-0.125l-0.262,-0.125l-0.262,-0.127l-0.261,-0.128l-0.261,-0.129l-0.259,-0.13l-0.259,-0.131l-0.258,-0.132l-0.257,-0.133l-0.257,-0.134l-0.256,-0.135l-0.254,-0.136l-0.254,-0.137l-0.254,-0.138l-0.252,-0.139l-0.252,-0.14l-0.251,-0.141l-0.25,-0.142l-0.249,-0.142l-0.071,-0.042l-0.176,-0.104l-0.246,-0.148l-0.245,-0.149l-0.244,-0.15l-0.243,-0.151l-0.242,-0.151l-0.241,-0.153l-0.241,-0.153l-0.24,-0.154l-0.239,-0.156l-0.238,-0.156l-0.238,-0.157l-0.236,-0.157l-0.236,-0.159l-0.235,-0.159l-0.234,-0.161l-0.234,-0.161l-0.232,-0.162l-0.232,-0.162l-0.231,-0.164l-0.23,-0.164l-0.229,-0.165l-0.229,-0.166l-0.227,-0.167l-0.227,-0.168l-0.226,-0.168l-0.098,-0.074l-0.126,-0.097l-0.221,-0.174l-0.22,-0.174l-0.22,-0.176l-0.218,-0.175l-0.218,-0.177l-0.217,-0.177l-0.216,-0.178l-0.216,-0.179l-0.214,-0.179l-0.214,-0.18l-0.213,-0.181l-0.212,-0.182l-0.211,-0.182l-0.211,-0.182l-0.209,-0.184l-0.209,-0.184l-0.208,-0.184l-0.207,-0.185l-0.206,-0.186l-0.206,-0.187l-0.205,-0.187l-0.204,-0.188l-0.203,-0.188l-0.202,-0.189l-0.201,-0.189l-0.201,-0.19l-0.054,-0.052l-0.143,-0.142l-0.196,-0.194l-0.195,-0.195l-0.193,-0.196l-0.193,-0.196l-0.193,-0.197l-0.191,-0.197l-0.191,-0.198l-0.189,-0.198l-0.189,-0.199l-0.188,-0.199l-0.188,-0.2l-0.186,-0.2l-0.089,-0.096l-0.095,-0.106l-0.182,-0.204l-0.181,-0.205l-0.18,-0.204l-0.179,-0.206l-0.179,-0.205l-0.178,-0.206l-0.176,-0.207l-0.177,-0.206l-0.175,-0.208l-0.174,-0.207l-0.174,-0.208l-0.173,-0.209l-0.05,-0.061l-0.119,-0.15l-0.167,-0.212l-0.166,-0.213l-0.166,-0.214l-0.164,-0.213l-0.164,-0.214l-0.163,-0.214l-0.162,-0.214l-0.162,-0.215l-0.16,-0.215l-0.163,-0.219l-0.314,-0.428l-0.314,-0.433l-0.311,-0.433l-0.308,-0.435l-0.305,-0.435l-0.302,-0.437l-0.299,-0.437l-0.295,-0.438l-0.1,-0.15l-0.188,-0.292l-0.283,-0.445l-0.279,-0.445l-0.277,-0.445l-0.274,-0.447l-0.27,-0.446l-0.268,-0.447l-0.265,-0.448l-0.261,-0.447l-0.259,-0.449l-0.256,-0.448l-0.254,-0.449l-0.25,-0.448l-0.248,-0.449l-0.245,-0.45l-0.242,-0.449l-0.002,-0.004l-0.232,-0.448l-0.232,-0.452l-0.229,-0.451l-0.226,-0.452l-0.224,-0.452l-0.221,-0.451l-0.218,-0.451l-0.215,-0.451l-0.213,-0.45l-0.211,-0.45l-0.208,-0.45l-0.205,-0.449l-0.202,-0.449l-0.201,-0.448l-0.197,-0.447l-0.195,-0.447l-0.193,-0.447l-0.053,-0.123l-0.135,-0.323l-0.184,-0.447l-0.182,-0.445l-0.18,-0.445l-0.177,-0.444l-0.175,-0.443l-0.172,-0.442l-0.17,-0.441l-0.168,-0.44l-0.165,-0.439l-0.164,-0.438l-0.16,-0.437l-0.159,-0.436l-0.157,-0.434l-0.154,-0.433l-0.152,-0.432l-0.15,-0.43l-0.147,-0.429l-0.134,-0.391l-0.012,-0.037l-0.14,-0.427l-0.138,-0.426l-0.136,-0.424l-0.134,-0.423l-0.132,-0.421l-0.13,-0.419l-0.127,-0.418l-0.126,-0.416l-0.124,-0.414l-0.122,-0.412l-0.12,-0.411l-0.118,-0.408l-0.116,-0.407l-0.114,-0.404l-0.112,-0.403l-0.111,-0.4l-0.108,-0.398l-0.107,-0.396l-0.105,-0.394l-0.103,-0.392l-0.101,-0.39l-0.099,-0.387l-0.098,-0.385l-0.096,-0.382l-0.094,-0.38l-0.093,-0.378l-0.091,-0.375l-0.089,-0.373l-0.087,-0.37l-0.086,-0.367l-0.085,-0.365l-0.082,-0.362l-0.081,-0.359l-0.08,-0.357l-0.077,-0.353l-0.077,-0.351l-0.074,-0.348l-0.074,-0.345l-0.071,-0.342l-0.071,-0.34l-0.068,-0.336l-0.038,-0.185l-0.029,-0.148l-0.064,-0.33l-0.063,-0.329l-0.12,-0.643l-0.115,-0.632l-0.11,-0.618l-0.105,-0.604l-0.1,-0.59l-0.095,-0.576l-0.089,-0.561l-0.085,-0.545l-0.081,-0.531l-0.076,-0.515l-0.071,-0.499l-0.068,-0.482l-0.063,-0.466l-0.059,-0.449l-0.055,-0.432l-0.052,-0.414l-0.047,-0.396l-0.045,-0.378l-0.04,-0.359l-0.038,-0.341l-0.034,-0.321l-0.031,-0.302l-0.028,-0.282l-0.026,-0.262l-0.023,-0.243l-0.037,-0.418l-0.028,-0.335l-0.008,-0.106l-0.011,-0.142l-0.014,-0.197l-0.001,-0.009l0.59,-1.967l1.666,-1.02l0.02,-0.003l1.872,0.527Z"/><path d="M254.258,483.065l3.818,0.059l7.842,0.255l7.771,0.386l7.288,0.455l11.465,0.869l4.568,0.401l2.777,1.184l1.16,2.352l0,0.02l-1.16,2.352l-2.777,1.184l-0.01,0.001l-4.558,0.4l-11.465,0.869l-7.288,0.455l-7.771,0.386l-7.842,0.255l-3.818,0.059l-3.68,0.003l-7.774,-0.142l-8.711,-0.29l-9.293,-0.404l-9.522,-0.482l-18.309,-1.056l-14.606,-0.92l-0.363,-0.023l-0.01,-0.001l-1.866,-0.85l-0.781,-1.796l0,-0.02l0.781,-1.796l1.866,-0.85l0.01,-0.001l0.363,-0.023l14.606,-0.92l18.309,-1.056l9.522,-0.482l9.293,-0.404l8.711,-0.29l7.774,-0.142l3.68,0.003Z"/></g></g></svg>